<svg width="95" height="123" viewBox="0 0 95 123" fill="none" xmlns="http://www.w3.org/2000/svg">
<path fill-rule="evenodd" clip-rule="evenodd" d="M85.82 83.99V69.63C86.43 67.02 87.58 65.68 88.87 65.44C93.35 64.6 92.63 82.99 85.82 83.99ZM82.96 65.92L76.92 66.58C77.23 67.69 77.39 68.86 77.39 70.07C77.39 73.7 75.92 76.99 73.54 79.37C71.16 81.75 67.87 83.22 64.24 83.22C60.61 83.22 57.32 81.75 54.94 79.37C52.56 76.99 51.09 73.7 51.09 70.07C51.09 69.72 51.1 69.37 51.13 69.03C51.13 68.96 50.88 68.81 50.83 68.76C49.57 67.68 48.27 67.21 47.07 67.28C45.87 67.35 44.69 67.96 43.67 69.06H43.66C43.6 69.12 43.52 69.21 43.43 69.33C43.4 69.37 43.36 69.41 43.32 69.44C43.33 69.65 43.34 69.86 43.34 70.07C43.34 73.7 41.87 76.99 39.49 79.37C37.11 81.75 33.82 83.22 30.19 83.22C26.56 83.22 23.27 81.75 20.89 79.37C18.47 77 17 73.71 17 70.08C17 68.88 17.16 67.71 17.46 66.6L11.36 65.84V91.2C13.26 100.31 15.6 101.07 21.43 106.78L31.55 116.68C33.38 118.19 35.44 119.07 37.63 119.59C41.48 120.49 54.4 120.78 58.01 119.61C60.21 118.9 62.28 117.6 64.2 115.58L71.55 108.44C78.65 101.55 83.47 98.58 82.96 87.17V65.92ZM30.16 56.92C33.79 56.92 37.08 58.39 39.46 60.77C40.9 62.21 42.02 63.99 42.66 65.98C43.93 65.05 45.36 64.51 46.85 64.43C48.5 64.33 50.18 64.78 51.77 65.82C52.43 63.9 53.52 62.18 54.92 60.77C57.3 58.39 60.59 56.92 64.22 56.92C67.85 56.92 71.14 58.39 73.52 60.77C74.42 61.67 75.19 62.7 75.8 63.83L82.95 63.05V51.25C58.87 34 44.05 19.72 23.98 32.43C16.84 36.95 14.62 46.22 11.36 51.39V62.97C11.43 62.97 11.5 62.97 11.57 62.98L18.56 63.85C19.17 62.71 19.95 61.68 20.85 60.77C23.23 58.4 26.52 56.92 30.16 56.92ZM31.89 48.99C32.86 48.95 33.67 49.7 33.71 50.66C33.75 51.63 33 52.44 32.04 52.48C29.36 52.6 27.07 53.15 25.15 54.08C23.28 54.98 21.76 56.27 20.55 57.9C19.97 58.68 18.88 58.84 18.1 58.26C17.32 57.68 17.16 56.59 17.74 55.81C19.29 53.72 21.24 52.08 23.63 50.92C25.96 49.8 28.71 49.14 31.89 48.99ZM63.95 52.14C62.98 52.14 62.2 51.35 62.21 50.38C62.21 49.41 63 48.63 63.97 48.64C66.87 48.65 69.51 49.2 71.89 50.31C74.29 51.44 76.39 53.13 78.17 55.44C78.76 56.21 78.62 57.3 77.85 57.9C77.09 58.49 75.99 58.35 75.39 57.58C73.96 55.72 72.29 54.37 70.4 53.48C68.5 52.59 66.34 52.15 63.95 52.14ZM60.88 94.71C59.38 95.22 57.83 95.65 56.23 96C54.59 96.45 53.08 96.73 51.74 96.76C50.21 96.79 48.9 96.5 47.85 95.81C47.53 95.6 47.24 95.37 46.99 95.12C46.74 95.36 46.45 95.59 46.13 95.81C45.08 96.51 43.77 96.79 42.24 96.76C40.9 96.73 39.39 96.46 37.75 96C36.15 95.65 34.61 95.22 33.1 94.71C31.6 94.2 30.14 93.61 28.71 92.95C28.02 92.63 27.74 91.86 28.09 91.22C28.3 90.84 28.68 90.6 29.1 90.53C29.86 90.41 30.47 90.33 31.04 90.25L31.09 90.24C32.93 89.99 34.34 89.79 36.07 89.1C36.56 88.91 37.03 88.69 37.51 88.47C40.26 87.2 43.27 85.81 46.28 88.19C46.54 88.4 46.78 88.61 46.99 88.84C47.2 88.61 47.44 88.4 47.7 88.19C50.7 85.8 53.72 87.19 56.47 88.47C56.95 88.69 57.42 88.91 57.91 89.1C59.63 89.79 61.05 89.99 62.89 90.24L62.94 90.25C63.51 90.33 64.12 90.41 64.88 90.53C65.3 90.6 65.69 90.84 65.89 91.22C66.24 91.85 65.96 92.63 65.27 92.95C63.84 93.62 62.38 94.21 60.88 94.71ZM43.36 82.99C42.75 82.48 42.67 81.58 43.18 80.98C43.69 80.37 44.59 80.29 45.19 80.8C45.9 81.4 46.59 81.71 47.24 81.72C47.9 81.73 48.62 81.43 49.39 80.79C50 80.29 50.9 80.38 51.4 80.99C51.9 81.6 51.81 82.5 51.2 83C49.88 84.08 48.55 84.59 47.2 84.58C45.87 84.56 44.58 84.02 43.36 82.99ZM38.88 101.85C38.15 101.46 37.87 100.55 38.26 99.82C38.65 99.09 39.56 98.81 40.29 99.2C42.61 100.43 44.88 101.05 47.12 101.06C49.36 101.07 51.6 100.45 53.85 99.21C54.58 98.81 55.49 99.08 55.89 99.8C56.29 100.53 56.02 101.44 55.3 101.84C52.61 103.33 49.88 104.06 47.12 104.05C44.36 104.05 41.61 103.31 38.88 101.85ZM8.55 83.99V69.63C7.94 67.02 6.79 65.68 5.5 65.44C1.01 64.6 1.74 82.99 8.55 83.99ZM8.96 86.46C8.71 86.5 8.45 86.51 8.19 86.47C3.47 85.78 0.93 80 0.32 74.47C0.15 72.95 0.12 71.44 0.23 70.08C0.34 68.63 0.61 67.29 1.05 66.21C1.99 63.85 3.61 62.54 5.96 62.97C7.08 63.18 8.11 63.76 8.97 64.74V62.82L7.05 61.74C6.52 56.51 5.17 50.08 4.32 44.13C4.18 43.17 4.1 42.24 4.05 41.32C1.98 41.74 0.3 39.81 0 34.4V25.68C1.26 15.25 6.12 11.06 14.09 12.26C21.68 4.33002 32.39 -0.099983 47.13 0.020017C63.56 -0.299983 77.56 3.53002 87.73 13.94C93.08 19.26 95.35 27.51 93.98 39.25C94.04 41.48 93.91 43.81 93.55 46.27C92.79 51.56 91.81 57.18 91.51 61.31L88.96 62.9C91.02 62.75 92.46 64.03 93.33 66.21C93.76 67.3 94.03 68.63 94.15 70.08C94.25 71.44 94.22 72.94 94.06 74.47C93.45 80 90.91 85.78 86.19 86.47C85.98 86.5 85.78 86.5 85.58 86.48V87.18C85.58 87.21 85.58 87.24 85.58 87.27C86.03 98.33 82 102.12 75.77 107.99C75 108.72 74.18 109.48 73.41 110.23L66.1 117.33C65.01 118.47 63.87 119.42 62.68 120.19C61.47 120.97 60.21 121.57 58.89 121.99C56.94 122.62 52.93 122.88 48.82 122.87C44.22 122.86 39.37 122.54 37.17 122.02C35.91 121.72 34.68 121.32 33.51 120.77C32.33 120.22 31.18 119.51 30.08 118.6C30.02 118.55 29.97 118.5 29.91 118.45L19.79 108.55C18.92 107.7 18.05 106.89 17.27 106.16C12.86 102.05 10.77 100.1 9.02 91.69C8.98 91.52 8.97 91.35 8.97 91.18H8.96V86.46Z" fill="white"/>
</svg>
