<svg width="25" height="23" viewBox="0 0 25 23" fill="none" xmlns="http://www.w3.org/2000/svg">
<path fill-rule="evenodd" clip-rule="evenodd" d="M12.0136 0.543182C14.3932 0.537717 16.7127 1.26399 18.6365 2.61684C18.8587 2.77214 18.919 3.06682 18.7746 3.29209L16.9563 6.14365C16.8796 6.26331 16.7549 6.34677 16.612 6.37404C16.4691 6.4013 16.3209 6.3699 16.203 6.28737C13.4684 4.37464 9.68062 4.76319 7.4229 7.18803C5.16518 9.61287 5.16518 13.2925 7.4229 15.7173C9.68062 18.1422 13.4684 18.5307 16.203 16.618C16.3209 16.5355 16.4691 16.5041 16.612 16.5313C16.7549 16.5586 16.8796 16.6421 16.9563 16.7617L18.7746 19.6133C18.919 19.8386 18.8587 20.1332 18.6365 20.2885C14.6761 23.0545 9.32306 23.045 5.37317 20.265C1.42328 17.485 -0.226717 12.5657 1.28491 8.07628C2.79653 3.58684 7.12657 0.546533 12.0136 0.543182Z" fill="white"/>
<path fill-rule="evenodd" clip-rule="evenodd" d="M17.1498 15.5413C17.0587 15.3769 17.0687 15.1774 17.1758 15.0223L18.4061 13.2406H10.9674C9.94419 13.2406 9.11475 12.4394 9.11475 11.451C9.11475 10.4626 9.94419 9.66134 10.9674 9.66134H18.4061L17.1758 7.87854C17.0686 7.72341 17.0585 7.52383 17.1497 7.35939C17.2408 7.19495 17.4184 7.09241 17.6115 7.09265H21.1538C21.3294 7.09319 21.4931 7.17888 21.5895 7.32078L24.2509 11.1704C24.3683 11.3403 24.3683 11.5617 24.2509 11.7316L21.593 15.5835C21.4965 15.7252 21.3329 15.8108 21.1573 15.8116H17.615C17.4199 15.8124 17.2405 15.7081 17.1498 15.5413V15.5413Z" fill="white"/>
</svg>
