<svg width="67" height="63" viewBox="0 0 67 63" fill="none" xmlns="http://www.w3.org/2000/svg">
<path fill-rule="evenodd" clip-rule="evenodd" d="M33.0612 0C14.802 0 0 14.103 0 31.5C0 48.897 14.802 63 33.0612 63C51.3204 63 66.1224 48.897 66.1224 31.5C66.1224 23.1457 62.6392 15.1335 56.439 9.22614C50.2389 3.31874 41.8296 0 33.0612 0ZM36.3275 46.3743H30.0856V40.5405H36.4135L36.3275 46.3743ZM39.2857 32.2749C40.429 31.5018 41.4587 30.5865 42.3472 29.5533V29.5438C43.3256 28.2426 43.8275 26.6707 43.7754 25.0708C43.9367 22.5581 42.7443 20.14 40.6114 18.6543C38.2965 17.1648 35.5442 16.4157 32.7528 16.5154C30.5959 16.4517 28.4669 16.9928 26.6298 18.0715C23.8394 19.8705 22.2502 22.9372 22.4476 26.1418H28.5573C28.5666 25.0005 28.9213 23.886 29.5789 22.932C30.352 21.8511 31.68 21.2552 33.047 21.3759C34.3209 21.2299 35.5865 21.7033 36.416 22.6359C37.038 23.4604 37.3607 24.4557 37.3351 25.4709C37.3418 26.3437 37.0557 27.1957 36.5185 27.9027C36.179 28.3512 35.7659 28.7447 35.2952 29.0682L33.7645 30.2337C32.5639 30.9964 31.5821 32.0326 30.908 33.2482C30.4256 34.7603 30.1849 36.333 30.1938 37.9134H35.8143C35.8073 37.1257 35.9107 36.3407 36.1217 35.5792C36.4153 34.7198 36.9871 33.971 37.7549 33.4404L39.2857 32.2749Z" fill="white"/>
</svg>
