<svg width="88" height="88" viewBox="0 0 88 88" fill="none" xmlns="http://www.w3.org/2000/svg">
<g clip-path="url(#clip0_2158_1121)">
<path d="M84.975 38.5L77 30.5305V11C77 7.975 74.525 5.5 71.5 5.5H66C62.975 5.5 60.5 7.975 60.5 11V14.0415L49.5 3.0525C47.9985 1.6335 46.6235 0 44 0C41.3765 0 40.0015 1.6335 38.5 3.0525L3.025 38.5C1.309 40.2875 0 41.591 0 44C0 47.0965 2.376 49.5 5.5 49.5H11V82.5C11 85.525 13.475 88 16.5 88H33V60.5C33 57.475 35.475 55 38.5 55H49.5C52.525 55 55 57.475 55 60.5V88H71.5C74.525 88 77 85.525 77 82.5V49.5H82.5C85.624 49.5 88 47.0965 88 44C88 41.591 86.691 40.2875 84.975 38.5Z" fill="white"/>
</g>
<defs>
<clipPath id="clip0_2158_1121">
<rect width="88" height="88" fill="white"/>
</clipPath>
</defs>
</svg>
