<svg width="26" height="24" viewBox="0 0 26 24" fill="none" xmlns="http://www.w3.org/2000/svg">
<path fill-rule="evenodd" clip-rule="evenodd" d="M1 12.0938C1 5.96684 6.28643 1 12.8076 1C19.3258 1.00673 24.608 5.96963 24.6152 12.0938C24.6152 18.2207 19.3287 23.1875 12.8076 23.1875C6.28643 23.1875 1 18.2207 1 12.0938ZM5.92022 18.6845C7.75519 20.3857 10.2297 21.3391 12.8076 21.3382C15.8795 21.3462 18.778 20.0014 20.6386 17.7048C22.4992 15.4082 23.107 12.4252 22.2808 9.64536C21.924 9.99321 21.464 10.2321 20.9607 10.331C20.7256 10.3459 20.495 10.2651 20.3278 10.1091C20.1347 9.93266 19.9156 9.78322 19.6772 9.66533C20.0987 10.4736 20.7119 11.1803 21.4696 11.731C21.5777 11.81 21.6459 11.9278 21.6578 12.056C21.6696 12.1842 21.6241 12.3112 21.5322 12.4066C20.9253 12.9659 20.4638 13.6493 20.1838 14.4035C20.1799 14.8116 19.9661 15.1927 19.6099 15.4263C19.3204 15.6088 19.1626 15.9272 19.2002 16.2528C19.2002 17.8226 16.6557 18.4793 16.3664 18.5492C16.3278 18.5586 16.2881 18.5634 16.2483 18.5636C16.1087 18.5637 15.9757 18.508 15.8823 18.4105C15.2853 17.815 14.8978 17.0613 14.7724 16.2517C14.7497 15.8841 14.8763 15.5222 15.1266 15.2388C15.2288 15.1394 15.2782 15.0022 15.2612 14.865C15.2523 14.6226 15.1853 14.3852 15.0652 14.1705C14.8762 13.8115 14.7753 13.4172 14.77 13.0168C13.8401 12.6414 12.8274 12.4827 11.8181 12.5541C10.8404 12.5541 9.84978 12.0782 9.84978 11.1674C9.84978 11.0556 9.83826 10.934 9.82607 10.8053C9.82531 10.7973 9.82456 10.7894 9.8238 10.7814C9.64952 9.97438 9.89562 9.13771 10.4862 8.52933C11.4039 7.7965 12.5833 7.41789 13.7864 7.46987C14.2515 7.44686 14.715 7.53785 15.1313 7.73391C15.4768 7.89377 15.8621 7.9624 16.2459 7.93248C16.349 7.93248 16.4503 7.9342 16.55 7.93589C16.6468 7.93753 16.7421 7.93914 16.8363 7.93914L16.8547 7.93939C17.5752 7.94933 18.3898 7.96057 18.624 7.74056C18.6488 7.71948 18.7114 7.66069 18.7114 7.47098C18.7114 6.95291 17.1988 6.54688 15.2671 6.54688C14.6629 6.56549 14.0726 6.72157 13.5467 7.00172C13.0201 7.28282 12.4302 7.44286 11.8252 7.46877C11.6945 7.46897 11.5692 7.42026 11.4769 7.33342C11.198 7.07221 11.0736 6.69898 11.1439 6.33498C11.4478 5.42429 12.151 4.67881 13.0768 4.28597C13.5798 4.04634 13.6707 3.90102 13.6813 3.87883C13.6188 3.79681 13.5459 3.7223 13.4641 3.65695C13.3627 3.57237 13.3031 3.4522 13.2993 3.32489C13.2955 3.19759 13.3479 3.07446 13.444 2.98467C13.4952 2.94719 13.5502 2.91449 13.6081 2.88705C13.3436 2.86708 13.078 2.84933 12.8076 2.84933C7.61644 2.85731 3.32405 6.65135 2.99902 11.5191C3.60385 11.8859 4.08506 12.4069 4.38641 13.0212C4.49647 13.2342 4.63365 13.4339 4.79496 13.6158C5.03197 13.7719 5.31554 13.8535 5.60496 13.8488L5.60581 13.8489C6.05825 13.8966 6.90379 13.9858 6.90379 14.8672C6.87662 15.3303 6.69016 15.7725 6.37245 16.1274C6.10112 16.4204 5.94192 16.7902 5.92022 17.178V18.6845Z" fill="white"/>
<path d="M12.8076 1L12.8081 0.5H12.8076V1ZM24.6152 12.0938H25.1152V12.0932L24.6152 12.0938ZM12.8076 21.3382L12.8089 20.8382H12.8074L12.8076 21.3382ZM5.92022 18.6845H5.42022V18.9028L5.58028 19.0512L5.92022 18.6845ZM20.6386 17.7048L20.2501 17.3901L20.6386 17.7048ZM22.2808 9.64536L22.7601 9.50291L22.5243 8.70966L21.9318 9.28734L22.2808 9.64536ZM20.9607 10.331L20.9925 10.8299L21.0251 10.8279L21.0571 10.8216L20.9607 10.331ZM20.3278 10.1091L20.669 9.74349L20.665 9.7399L20.3278 10.1091ZM19.6772 9.66533L19.8989 9.21715L18.5253 8.53777L19.2339 9.89651L19.6772 9.66533ZM21.4696 11.731L21.7647 11.3274L21.7636 11.3265L21.4696 11.731ZM21.5322 12.4066L21.8711 12.7743L21.8819 12.7642L21.8922 12.7536L21.5322 12.4066ZM20.1838 14.4035L19.715 14.2294L19.6846 14.3113L19.6838 14.3987L20.1838 14.4035ZM19.6099 15.4263L19.8766 15.8494L19.8842 15.8444L19.6099 15.4263ZM19.2002 16.2528H19.7002V16.224L19.6969 16.1954L19.2002 16.2528ZM16.3664 18.5492L16.249 18.0632L16.2481 18.0634L16.3664 18.5492ZM16.2483 18.5636L16.2484 19.0636L16.2507 19.0636L16.2483 18.5636ZM15.8823 18.4105L16.2434 18.0645L16.2354 18.0565L15.8823 18.4105ZM14.7724 16.2517L14.2733 16.2824L14.2747 16.3054L14.2783 16.3282L14.7724 16.2517ZM15.1266 15.2388L14.7779 14.8804L14.7644 14.8936L14.7519 14.9078L15.1266 15.2388ZM15.2612 14.865L14.7615 14.8834L14.7623 14.9049L14.765 14.9263L15.2612 14.865ZM15.0652 14.1705L14.6226 14.4035L14.6288 14.4146L15.0652 14.1705ZM14.77 13.0168L15.27 13.0101L15.2656 12.6776L14.9572 12.5531L14.77 13.0168ZM11.8181 12.5541V13.0541H11.8358L11.8534 13.0529L11.8181 12.5541ZM9.82607 10.8053L10.3238 10.7581L10.3238 10.7581L9.82607 10.8053ZM9.8238 10.7814L10.3216 10.7344L10.3188 10.7048L10.3125 10.6758L9.8238 10.7814ZM10.4862 8.52933L10.1742 8.13861L10.1495 8.15836L10.1274 8.18106L10.4862 8.52933ZM13.7864 7.46987L13.7648 7.96941L13.788 7.97041L13.8111 7.96926L13.7864 7.46987ZM15.1313 7.73391L14.9183 8.18627L14.9214 8.18769L15.1313 7.73391ZM16.2459 7.93248V7.43248H16.2265L16.2071 7.434L16.2459 7.93248ZM16.55 7.93589L16.5584 7.43596H16.5584L16.55 7.93589ZM16.8363 7.93914L16.8432 7.43914H16.8363V7.93914ZM16.8547 7.93939L16.8616 7.43944H16.8615L16.8547 7.93939ZM18.624 7.74056L18.3002 7.35961L18.2907 7.36766L18.2816 7.37616L18.624 7.74056ZM15.2671 6.54688V6.04688H15.2594L15.2517 6.04711L15.2671 6.54688ZM13.5467 7.00172L13.3116 6.56044L13.3113 6.56063L13.5467 7.00172ZM11.8252 7.46877L11.826 7.96877L11.8363 7.96875L11.8466 7.96831L11.8252 7.46877ZM11.4769 7.33342L11.8194 6.96921L11.8187 6.96854L11.4769 7.33342ZM11.1439 6.33498L10.6696 6.17672L10.6592 6.20789L10.653 6.24015L11.1439 6.33498ZM13.0768 4.28597L13.2721 4.74624L13.2821 4.74202L13.2918 4.73736L13.0768 4.28597ZM13.6813 3.87883L14.1323 4.09481L14.2644 3.81901L14.079 3.57577L13.6813 3.87883ZM13.4641 3.65695L13.1436 4.04089L13.152 4.0476L13.4641 3.65695ZM13.2993 3.32489L12.7995 3.33981L13.2993 3.32489ZM13.444 2.98467L13.1486 2.58126L13.1245 2.5989L13.1027 2.61928L13.444 2.98467ZM13.6081 2.88705L13.8221 3.33895L15.5293 2.53067L13.6458 2.38847L13.6081 2.88705ZM12.8076 2.84933V2.34933L12.8068 2.34933L12.8076 2.84933ZM2.99902 11.5191L2.50013 11.4858L2.47989 11.789L2.73973 11.9466L2.99902 11.5191ZM4.38641 13.0212L3.93743 13.2415L3.9422 13.2507L4.38641 13.0212ZM4.79496 13.6158L4.42082 13.9475L4.46469 13.997L4.51991 14.0334L4.79496 13.6158ZM5.60496 13.8488L5.65689 13.3515L5.62693 13.3484L5.59682 13.3488L5.60496 13.8488ZM5.60581 13.8489L5.65826 13.3516L5.65774 13.3516L5.60581 13.8489ZM6.90379 14.8672L7.40293 14.8965L7.40379 14.8818V14.8672H6.90379ZM6.37245 16.1274L6.73933 16.4672L6.745 16.4609L6.37245 16.1274ZM5.92022 17.178L5.421 17.1501L5.42022 17.164V17.178H5.92022ZM12.8076 0.5C6.04012 0.5 0.5 5.66178 0.5 12.0938H1.5C1.5 6.2719 6.53274 1.5 12.8076 1.5V0.5ZM25.1152 12.0932C25.1076 5.66451 19.5723 0.50698 12.8081 0.5L12.8071 1.5C19.0793 1.50647 24.1084 6.27475 24.1152 12.0943L25.1152 12.0932ZM12.8076 23.6875C19.575 23.6875 25.1152 18.5257 25.1152 12.0938H24.1152C24.1152 17.9156 19.0824 22.6875 12.8076 22.6875V23.6875ZM0.5 12.0938C0.5 18.5257 6.04012 23.6875 12.8076 23.6875V22.6875C6.53274 22.6875 1.5 17.9156 1.5 12.0938H0.5ZM12.8074 20.8382C10.3514 20.8391 7.99958 19.9305 6.26015 18.3179L5.58028 19.0512C7.5108 20.841 10.1079 21.8392 12.8078 21.8382L12.8074 20.8382ZM20.2501 17.3901C18.4889 19.5639 15.7364 20.8458 12.8089 20.8382L12.8063 21.8382C16.0226 21.8466 19.067 20.4389 21.0271 18.0196L20.2501 17.3901ZM21.8015 9.78781C22.5797 12.406 22.0093 15.2186 20.2501 17.3901L21.0271 18.0196C22.9891 15.5978 23.6344 12.4444 22.7601 9.50291L21.8015 9.78781ZM21.0571 10.8216C21.6527 10.7046 22.2014 10.4211 22.6298 10.0034L21.9318 9.28734C21.6466 9.56531 21.2753 9.75962 20.8644 9.84032L21.0571 10.8216ZM19.9867 10.4746C20.2579 10.7277 20.6247 10.8534 20.9925 10.8299L20.9289 9.83196C20.8265 9.83849 20.7321 9.80247 20.6689 9.74351L19.9867 10.4746ZM19.4556 10.1135C19.6526 10.211 19.8327 10.334 19.9906 10.4783L20.665 9.7399C20.4367 9.53134 20.1786 9.35549 19.8989 9.21715L19.4556 10.1135ZM21.7636 11.3265C21.0666 10.8199 20.5053 10.172 20.1206 9.43414L19.2339 9.89651C19.6921 10.7752 20.3572 11.5406 21.1757 12.1354L21.7636 11.3265ZM22.1556 12.0098C22.1299 11.7326 21.9832 11.4871 21.7647 11.3274L21.1745 12.1346C21.1722 12.1329 21.1618 12.123 21.1599 12.1021L22.1556 12.0098ZM21.8922 12.7536C22.0817 12.5569 22.1814 12.2876 22.1556 12.0098L21.1599 12.1021C21.1579 12.0807 21.1665 12.0655 21.1722 12.0596L21.8922 12.7536ZM20.6525 14.5775C20.9044 13.8992 21.3205 13.2816 21.8711 12.7743L21.1933 12.0389C20.53 12.6502 20.0233 13.3994 19.715 14.2294L20.6525 14.5775ZM19.8842 15.8444C20.3725 15.524 20.6782 14.9917 20.6838 14.4082L19.6838 14.3987C19.6816 14.6315 19.5596 14.8613 19.3356 15.0083L19.8842 15.8444ZM19.6969 16.1954C19.6826 16.0713 19.7406 15.935 19.8766 15.8493L19.3433 15.0033C18.9002 15.2826 18.6426 15.783 18.7035 16.3102L19.6969 16.1954ZM16.4838 19.0352C16.6425 18.9969 17.4019 18.8029 18.1324 18.4017C18.8293 18.0191 19.7002 17.3348 19.7002 16.2528H18.7002C18.7002 16.7405 18.2989 17.1695 17.6511 17.5252C17.0371 17.8623 16.3796 18.0316 16.249 18.0632L16.4838 19.0352ZM16.2507 19.0636C16.3294 19.0632 16.408 19.0537 16.4846 19.035L16.2481 18.0634C16.2477 18.0635 16.2469 18.0636 16.2459 18.0636L16.2507 19.0636ZM15.5212 18.7565C15.7125 18.9561 15.9777 19.0637 16.2484 19.0636L16.2482 18.0636C16.2448 18.0636 16.2422 18.0629 16.2409 18.0624C16.2396 18.0618 16.2408 18.062 16.2433 18.0646L15.5212 18.7565ZM14.2783 16.3282C14.4204 17.2462 14.8592 18.0962 15.5292 18.7645L16.2354 18.0565C15.7113 17.5338 15.3751 16.8763 15.2665 16.1752L14.2783 16.3282ZM14.7519 14.9078C14.4164 15.2875 14.2423 15.7787 14.2733 16.2824L15.2714 16.221C15.2572 15.9896 15.3362 15.7568 15.5013 15.5699L14.7519 14.9078ZM14.765 14.9263C14.7637 14.9156 14.7651 14.9053 14.7681 14.8967C14.7712 14.8882 14.7753 14.883 14.7779 14.8804L15.4752 15.5972C15.6855 15.3926 15.7943 15.1017 15.7574 14.8036L14.765 14.9263ZM14.6288 14.4146C14.7108 14.5611 14.7556 14.7213 14.7615 14.8834L15.7609 14.8466C15.749 14.5238 15.6597 14.2093 15.5016 13.9264L14.6288 14.4146ZM14.27 13.0234C14.2764 13.5038 14.3975 13.9756 14.6228 14.4035L15.5076 13.9375C15.3549 13.6475 15.2742 13.3306 15.27 13.0101L14.27 13.0234ZM11.8534 13.0529C12.7875 12.9867 13.7241 13.1337 14.5828 13.4804L14.9572 12.5531C13.9561 12.149 12.8672 11.9786 11.7828 12.0554L11.8534 13.0529ZM9.34978 11.1674C9.34978 11.8344 9.72286 12.3245 10.201 12.6255C10.6677 12.9193 11.2575 13.0541 11.8181 13.0541V12.0541C11.401 12.0541 11.0067 11.951 10.7337 11.7792C10.472 11.6145 10.3498 11.4112 10.3498 11.1674H9.34978ZM9.32829 10.8524C9.34104 10.9869 9.34978 11.0838 9.34978 11.1674H10.3498C10.3498 11.0275 10.3355 10.881 10.3238 10.7581L9.32829 10.8524ZM9.32601 10.8283C9.32678 10.8364 9.32755 10.8445 9.3283 10.8524L10.3238 10.7581C10.3231 10.7501 10.3223 10.7423 10.3216 10.7344L9.32601 10.8283ZM10.1274 8.18106C9.42414 8.90555 9.12435 9.9112 9.33507 10.8869L10.3125 10.6758C10.1747 10.0376 10.3671 9.36987 10.845 8.8776L10.1274 8.18106ZM13.808 6.97034C12.4875 6.91329 11.1889 7.32833 10.1742 8.13861L10.7982 8.92004C11.6189 8.26466 12.679 7.92249 13.7648 7.96941L13.808 6.97034ZM15.3443 7.28155C14.8529 7.05013 14.3077 6.94347 13.7617 6.97049L13.8111 7.96926C14.1953 7.95025 14.577 8.02557 14.9183 8.18626L15.3443 7.28155ZM16.2071 7.434C15.9076 7.45734 15.6081 7.40359 15.3413 7.28012L14.9214 8.18769C15.3455 8.38394 15.8166 8.46747 16.2848 8.43097L16.2071 7.434ZM16.5584 7.43596C16.4594 7.43428 16.3539 7.43248 16.2459 7.43248V8.43248C16.3441 8.43248 16.4412 8.43412 16.5415 8.43582L16.5584 7.43596ZM16.8363 7.43914C16.7471 7.43914 16.656 7.43761 16.5584 7.43596L16.5415 8.43582C16.6375 8.43744 16.7372 8.43914 16.8363 8.43914V7.43914ZM16.8615 7.43944L16.8432 7.43919L16.8294 8.43909L16.8478 8.43935L16.8615 7.43944ZM18.2816 7.37616C18.3181 7.34194 18.3252 7.357 18.2304 7.38039C18.1487 7.40053 18.0338 7.41675 17.8855 7.42752C17.5884 7.44909 17.2278 7.44449 16.8616 7.43944L16.8478 8.43935C17.202 8.44423 17.6091 8.45022 17.9579 8.4249C18.1326 8.41221 18.3103 8.39062 18.4698 8.3513C18.6161 8.31523 18.8128 8.24919 18.9664 8.10496L18.2816 7.37616ZM18.2114 7.47098C18.2114 7.51158 18.2047 7.49963 18.2222 7.46131C18.231 7.44194 18.2438 7.42076 18.261 7.39974C18.2785 7.37838 18.295 7.36395 18.3002 7.35961L18.9478 8.12152C18.9946 8.0818 19.0727 8.00603 19.1318 7.87671C19.1868 7.75629 19.2114 7.6201 19.2114 7.47098H18.2114ZM15.2671 7.04688C16.2036 7.04688 17.0186 7.14584 17.584 7.29757C17.8704 7.3744 18.0638 7.45723 18.1739 7.52822C18.3039 7.61212 18.2114 7.60392 18.2114 7.47098H19.2114C19.2114 7.07901 18.9297 6.82577 18.7158 6.68784C18.4819 6.53698 18.1765 6.42117 17.8432 6.33174C17.1694 6.15092 16.2623 6.04688 15.2671 6.04688V7.04688ZM13.7818 7.443C14.2389 7.19949 14.7539 7.06292 15.2825 7.04664L15.2517 6.04711C14.5719 6.06805 13.9063 6.24364 13.3116 6.56044L13.7818 7.443ZM11.8466 7.96831C12.5253 7.93925 13.1885 7.75971 13.7822 7.44281L13.3113 6.56063C12.8517 6.80593 12.3351 6.94648 11.8038 6.96922L11.8466 7.96831ZM11.1343 7.69764C11.3227 7.87481 11.5721 7.96916 11.826 7.96877L11.8244 6.96877C11.8214 6.96877 11.819 6.96818 11.8177 6.96768C11.8165 6.96719 11.8173 6.96723 11.8194 6.96921L11.1343 7.69764ZM10.653 6.24015C10.5489 6.77899 10.7355 7.324 11.135 7.69831L11.8187 6.96854C11.6606 6.82041 11.5983 6.61897 11.6348 6.42982L10.653 6.24015ZM12.8815 3.82569C11.8308 4.27152 11.0213 5.12284 10.6696 6.17672L11.6182 6.49325C11.8743 5.72575 12.4712 5.0861 13.2721 4.74624L12.8815 3.82569ZM13.2304 3.66285C13.2697 3.58086 13.3063 3.56675 13.2527 3.60935C13.2038 3.64818 13.0904 3.72563 12.8618 3.83457L13.2918 4.73736C13.8145 4.48835 14.0433 4.28056 14.1323 4.09481L13.2304 3.66285ZM13.152 4.0476C13.2023 4.08776 13.2464 4.13296 13.2837 4.18188L14.079 3.57577C13.9913 3.46066 13.8895 3.35683 13.7762 3.2663L13.152 4.0476ZM12.7995 3.33981C12.8078 3.61591 12.9371 3.86835 13.1437 4.0408L13.7845 3.27311C13.7884 3.27638 13.7985 3.28848 13.7991 3.30997L12.7995 3.33981ZM13.1027 2.61928C12.9055 2.8035 12.7913 3.06356 12.7995 3.33981L13.7991 3.30997C13.7997 3.33161 13.7903 3.34542 13.7853 3.35006L13.1027 2.61928ZM13.3942 2.43514C13.3079 2.47598 13.2256 2.52486 13.1486 2.58126L13.7394 3.38809C13.7648 3.36951 13.7924 3.35299 13.8221 3.33895L13.3942 2.43514ZM12.8076 3.34933C13.0577 3.34933 13.3072 3.36575 13.5705 3.38563L13.6458 2.38847C13.3801 2.36841 13.0983 2.34933 12.8076 2.34933V3.34933ZM3.49791 11.5524C3.80369 6.97296 7.85328 3.35695 12.8083 3.34933L12.8068 2.34933C7.3796 2.35767 2.84441 6.32974 2.50013 11.4858L3.49791 11.5524ZM4.8353 12.801C4.49038 12.0979 3.94193 11.5062 3.25832 11.0916L2.73973 11.9466C3.26577 12.2657 3.67974 12.716 3.93752 13.2414L4.8353 12.801ZM5.16909 13.2841C5.03491 13.1328 4.92138 12.9673 4.83063 12.7917L3.9422 13.2507C4.07155 13.5011 4.2324 13.735 4.42082 13.9475L5.16909 13.2841ZM5.59682 13.3488C5.4058 13.352 5.22129 13.2979 5.07 13.1983L4.51991 14.0334C4.84265 14.246 5.22528 14.355 5.61309 14.3487L5.59682 13.3488ZM5.65774 13.3516L5.65689 13.3515L5.55302 14.3461L5.55387 14.3462L5.65774 13.3516ZM7.40379 14.8672C7.40379 14.5633 7.32965 14.2952 7.18404 14.0708C7.04004 13.8489 6.84622 13.7005 6.65398 13.6012C6.28906 13.4126 5.86932 13.3739 5.65826 13.3516L5.55335 14.3461C5.79473 14.3716 6.02398 14.4013 6.19495 14.4896C6.27064 14.5287 6.31649 14.5709 6.34517 14.6151C6.37223 14.6568 6.40379 14.7304 6.40379 14.8672H7.40379ZM6.745 16.4609C7.13586 16.0243 7.36895 15.4756 7.40293 14.8965L6.40465 14.8379C6.38429 15.1849 6.24445 15.5208 5.9999 15.794L6.745 16.4609ZM6.41944 17.206C6.43444 16.9378 6.5446 16.6774 6.73928 16.4672L6.00562 15.7877C5.65763 16.1634 5.4494 16.6426 5.421 17.1501L6.41944 17.206ZM6.42022 18.6845V17.178H5.42022V18.6845H6.42022Z" fill="white"/>
</svg>
