<svg width="123" height="106" viewBox="0 0 123 106" fill="none" xmlns="http://www.w3.org/2000/svg">
<g clip-path="url(#clip0_2176_1081)">
<path fill-rule="evenodd" clip-rule="evenodd" d="M63.91 18.75V30.91H97.42C102.85 30.91 107.29 35.35 107.29 40.78V53.25H120.71C121.9 53.25 122.88 54.22 122.88 55.42V80.7C122.88 81.89 121.91 82.87 120.71 82.87H107.29V95.34C107.29 100.77 102.85 105.21 97.42 105.21H24.42C18.99 105.21 14.55 100.77 14.55 95.34V82.87H2.17C0.97 82.87 0 81.9 0 80.71V55.42C0 54.23 0.97 53.25 2.17 53.25H14.55V40.79C14.55 35.36 18.99 30.92 24.42 30.92H57.93V18.75C54.08 17.49 51.31 13.88 51.31 9.61C51.31 4.3 55.61 0 60.92 0C66.23 0 70.53 4.3 70.53 9.61C70.53 13.88 67.75 17.49 63.91 18.75ZM41.03 79.74H81.84C83.83 79.74 85.46 81.37 85.46 83.36V85.06C85.46 87.05 83.83 88.68 81.84 88.68H41.03C39.04 88.68 37.41 87.05 37.41 85.06V83.36C37.41 81.36 39.04 79.74 41.03 79.74ZM78.7 47.59C84.07 47.59 88.43 51.94 88.43 57.32C88.43 62.69 84.08 67.04 78.7 67.04C73.32 67.04 68.98 62.69 68.98 57.32C68.97 51.94 73.33 47.59 78.7 47.59ZM44.18 47.59C49.55 47.59 53.9 51.94 53.9 57.32C53.9 62.69 49.55 67.04 44.18 67.04C38.81 67.04 34.46 62.69 34.46 57.32C34.46 51.94 38.81 47.59 44.18 47.59Z" fill="white"/>
</g>
<defs>
<clipPath id="clip0_2176_1081">
<rect width="122.88" height="105.21" fill="white"/>
</clipPath>
</defs>
</svg>
