<svg width="123" height="82" viewBox="0 0 123 82" fill="none" xmlns="http://www.w3.org/2000/svg">
<path fill-rule="evenodd" clip-rule="evenodd" d="M68.75 62C67.75 62 66.96 60.93 66.96 59.62C66.96 58.31 67.76 57.24 68.75 57.24H104.66C105.66 57.24 106.44 58.31 106.44 59.62C106.44 60.93 105.64 62 104.66 62H68.75ZM25.66 0H97.22C98.0819 0.00327302 98.9164 0.303358 99.583 0.849753C100.25 1.39615 100.708 2.15549 100.88 3H109.67C113.169 3.01054 116.521 4.40431 118.996 6.87723C121.471 9.35014 122.867 12.7015 122.88 16.2V68.2C122.866 71.6879 121.471 75.0281 119 77.49C116.532 79.9629 113.184 81.3549 109.69 81.36H13.21C9.71491 81.3495 6.36553 79.9585 3.89131 77.4899C1.41709 75.0213 0.0184489 71.6751 0 68.18L0 16.18C0.00375371 14.4524 0.348411 12.7425 1.01422 11.1483C1.68002 9.55418 2.65389 8.10709 3.88 6.89C5.10167 5.6582 6.55501 4.68032 8.15629 4.01269C9.75756 3.34506 11.4751 3.00089 13.21 3H22C22.1706 2.15463 22.6282 1.39422 23.2952 0.847509C23.9622 0.3008 24.7976 0.00139775 25.66 0ZM101 9.17V9.66C100.997 10.6484 100.604 11.5957 99.9046 12.2946C99.2057 12.9935 98.2584 13.3874 97.27 13.39H25.66C24.6716 13.3874 23.7243 12.9935 23.0254 12.2946C22.3265 11.5957 21.9326 10.6484 21.93 9.66V9.17H13.21C12.2816 9.16464 11.3614 9.34401 10.503 9.69767C9.64464 10.0513 8.86517 10.5722 8.21 11.23C7.55402 11.886 7.03498 12.6658 6.68306 13.5242C6.33113 14.3826 6.15333 15.3023 6.16 16.23V68.23C6.17309 70.0825 6.91479 71.8553 8.22472 73.1653C9.53465 74.4752 11.3075 75.2169 13.16 75.23H109.62C110.548 75.2354 111.469 75.056 112.327 74.7023C113.185 74.3487 113.965 73.8278 114.62 73.17C115.278 72.5148 115.799 71.7354 116.152 70.877C116.506 70.0186 116.685 69.0984 116.68 68.17V16.17C116.662 14.3191 115.918 12.5492 114.61 11.2404C113.301 9.93159 111.531 9.18824 109.68 9.17H101ZM44.81 48.17C51.89 54.37 56.53 45.44 60 60C59.995 60.299 59.9299 60.5939 59.8087 60.8672C59.6874 61.1405 59.5124 61.3866 59.2941 61.5909C59.0758 61.7952 58.8186 61.9535 58.5379 62.0565C58.2572 62.1594 57.9586 62.2048 57.66 62.19H19.52C19.222 62.202 18.9246 62.1547 18.6451 62.0508C18.3656 61.9468 18.1095 61.7884 17.8918 61.5846C17.674 61.3808 17.499 61.1358 17.3768 60.8638C17.2546 60.5917 17.1877 60.2981 17.18 60C20.56 45.66 24.63 54.33 32.28 48.26C32.6649 47.3289 32.9988 46.3775 33.28 45.41C33.53 44.63 31.98 43.09 31.46 42.26L29.53 39.18C28.9113 38.3626 28.5306 37.3902 28.43 36.37C28.415 36.0264 28.4801 35.6841 28.62 35.37C28.773 35.0597 29.0038 34.7944 29.29 34.6C29.4358 34.5003 29.5937 34.4196 29.76 34.36C29.621 32.5234 29.5876 30.6804 29.66 28.84C29.74 28.4248 29.8537 28.0168 30 27.62C30.4123 26.3866 31.114 25.2698 32.0466 24.3634C32.9792 23.4569 34.1154 22.7871 35.36 22.41C36.57 22 36.1 21 37.36 21.07C40.24 21.22 44.69 23.07 46.36 25.07C48.76 27.83 48.14 31.23 48.06 34.61C48.3019 34.67 48.5228 34.7948 48.699 34.971C48.8752 35.1472 49 35.3681 49.06 35.61C49.1707 36.5229 48.9886 37.4473 48.54 38.25V38.32L46.27 42C45.4949 43.4157 44.533 44.7207 43.41 45.88C43.08 46.15 44.54 47.94 44.76 48.23L44.81 48.17ZM68.81 33.17C67.81 33.17 67.02 32.1 67.02 30.79C67.02 29.48 67.82 28.41 68.81 28.41H90.21C91.21 28.41 92 29.48 92 30.79C92 32.1 91.2 33.17 90.21 33.17H68.81ZM68.81 47.54C67.81 47.54 67.02 46.47 67.02 45.16C67.02 43.85 67.82 42.78 68.81 42.78H102.81C103.81 42.78 104.6 43.85 104.6 45.16C104.6 46.47 103.8 47.54 102.81 47.54H68.81Z" fill="white"/>
</svg>
