<svg width="122" height="135" viewBox="0 0 122 135" fill="none" xmlns="http://www.w3.org/2000/svg">
<g clip-path="url(#clip0_2175_1086)">
<path fill-rule="evenodd" clip-rule="evenodd" d="M15.892 61.6876H24.851V60.6001V42.5486C24.851 32.2249 29.028 22.838 35.749 16.0369V16.0278C42.473 9.22557 51.754 5 61.966 5C72.17 5 81.449 9.22557 88.173 16.0278L88.183 16.0369C94.904 22.838 99.081 32.2249 99.081 42.5486V60.6001V61.6876H106.217C107.807 61.6876 109.109 63.0047 109.109 64.6122V126.384C109.109 127.992 107.807 129.309 106.217 129.309H15.892C14.302 129.309 13 127.992 13 126.384V64.6122C13 63.0047 14.302 61.6876 15.892 61.6876ZM39.271 61.6876H84.658V60.6001V42.3402C84.658 36.0276 82.104 30.2846 77.996 26.1238L77.991 26.1278C73.88 21.966 68.204 19.3813 61.966 19.3813C55.725 19.3813 50.049 21.965 45.933 26.1238C41.824 30.2846 39.271 36.0276 39.271 42.3402V60.6011V61.6876ZM62.149 95.4881L66.73 116.873L54.173 116.927L57.858 95.2544C54.427 94.1416 51.94 90.8892 51.94 87.0491C51.94 82.2934 55.75 78.4391 60.453 78.4391C65.151 78.4391 68.964 82.2934 68.964 87.0491C68.964 91.217 66.036 94.694 62.149 95.4881Z" fill="white"/>
</g>
<defs>
<clipPath id="clip0_2175_1086">
<path d="M13 5H109.109V124.309C109.109 127.07 106.87 129.309 104.109 129.309H13V5Z" fill="white"/>
</clipPath>
</defs>
</svg>
