<svg width="74" height="70" viewBox="0 0 74 70" fill="none" xmlns="http://www.w3.org/2000/svg">
<path d="M37 69C56.826 69 73 53.8323 73 35C73 16.1677 56.826 1 37 1C17.174 1 1 16.1677 1 35C1 53.8323 17.174 69 37 69Z" fill="white" stroke="white" stroke-width="2"/>
<path fill-rule="evenodd" clip-rule="evenodd" d="M36.9035 3.6842C18.6443 3.6842 3.84229 17.7872 3.84229 35.1842C3.84229 52.5812 18.6443 66.6842 36.9035 66.6842C55.1627 66.6842 69.9647 52.5812 69.9647 35.1842C69.9647 26.8299 66.4815 18.8177 60.2813 12.9103C54.0811 7.00294 45.6719 3.6842 36.9035 3.6842ZM40.1698 50.0585H33.9279V44.2247H40.2558L40.1698 50.0585ZM43.128 35.9591C44.2713 35.186 45.3009 34.2707 46.1894 33.2375V33.228C47.1679 31.9268 47.6698 30.3549 47.6177 28.755C47.7789 26.2423 46.5866 23.8242 44.4537 22.3385C42.1388 20.849 39.3865 20.0999 36.5951 20.1996C34.4382 20.1359 32.3092 20.677 30.4721 21.7557C27.6817 23.5547 26.0925 26.6214 26.2899 29.826H32.3996C32.4089 28.6847 32.7636 27.5702 33.4212 26.6162C34.1943 25.5353 35.5223 24.9394 36.8893 25.0601C38.1632 24.9141 39.4287 25.3875 40.2583 26.3201C40.8803 27.1446 41.203 28.1399 41.1774 29.1551C41.1841 30.0279 40.898 30.8799 40.3607 31.5869C40.0213 32.0354 39.6082 32.4289 39.1375 32.7524L37.6067 33.9179C36.4062 34.6806 35.4243 35.7168 34.7503 36.9324C34.2679 38.4445 34.0272 40.0172 34.0361 41.5976H39.6565C39.6495 40.8099 39.7529 40.025 39.964 39.2634C40.2576 38.404 40.8293 37.6552 41.5972 37.1246L43.128 35.9591Z" fill="#6256A8"/>
<path d="M60.2813 12.9103L60.1089 13.0913L60.1089 13.0913L60.2813 12.9103ZM33.9279 50.0585H33.6779V50.3085H33.9279V50.0585ZM40.1698 50.0585V50.3085H40.4162L40.4198 50.0622L40.1698 50.0585ZM33.9279 44.2247V43.9747H33.6779V44.2247H33.9279ZM40.2558 44.2247L40.5058 44.2284L40.5095 43.9747H40.2558V44.2247ZM46.1894 33.2375L46.379 33.4005L46.4394 33.3302V33.2375H46.1894ZM43.128 35.9591L42.9877 35.7516L42.9765 35.7602L43.128 35.9591ZM46.1894 33.228L45.9896 33.0778L45.9394 33.1445V33.228H46.1894ZM47.6177 28.755L47.3682 28.739L47.3674 28.7511L47.3678 28.7631L47.6177 28.755ZM44.4537 22.3385L44.5967 22.1332L44.589 22.1282L44.4537 22.3385ZM36.5951 20.1996L36.5877 20.4495L36.5958 20.4497L36.604 20.4494L36.5951 20.1996ZM30.4721 21.7557L30.3454 21.5399L30.3367 21.5456L30.4721 21.7557ZM26.2899 29.826L26.0404 29.8414L26.0548 30.076H26.2899V29.826ZM32.3996 29.826V30.076H32.6476L32.6496 29.828L32.3996 29.826ZM33.4212 26.6162L33.2178 26.4707L33.2154 26.4743L33.4212 26.6162ZM36.8893 25.0601L36.8673 25.3091L36.8926 25.3113L36.9178 25.3084L36.8893 25.0601ZM40.2583 26.3201L40.4578 26.1695L40.4518 26.1614L40.445 26.1539L40.2583 26.3201ZM41.1774 29.1551L40.9273 29.1487L40.9274 29.157L41.1774 29.1551ZM40.3607 31.5869L40.1617 31.4356L40.1614 31.436L40.3607 31.5869ZM39.1375 32.7524L38.9957 32.5461L38.986 32.5535L39.1375 32.7524ZM37.6067 33.9179L37.7408 34.1289L37.7498 34.1232L37.7582 34.1168L37.6067 33.9179ZM34.7503 36.9324L34.5316 36.8112L34.5196 36.8328L34.5121 36.8564L34.7503 36.9324ZM34.0361 41.5976L33.7861 41.599L33.7875 41.8476H34.0361V41.5976ZM39.6565 41.5976V41.8476H39.9088L39.9065 41.5953L39.6565 41.5976ZM39.964 39.2634L39.7274 39.1826L39.7251 39.1896L39.7231 39.1966L39.964 39.2634ZM41.5972 37.1246L41.7395 37.3304L41.7487 37.3235L41.5972 37.1246ZM4.09229 35.1842C4.09229 17.9366 18.7708 3.9342 36.9035 3.9342V3.4342C18.5178 3.4342 3.59229 17.6379 3.59229 35.1842H4.09229ZM36.9035 66.4342C18.7708 66.4342 4.09229 52.4318 4.09229 35.1842H3.59229C3.59229 52.7305 18.5178 66.9342 36.9035 66.9342V66.4342ZM69.7147 35.1842C69.7147 52.4318 55.0362 66.4342 36.9035 66.4342V66.9342C55.2893 66.9342 70.2147 52.7305 70.2147 35.1842H69.7147ZM60.1089 13.0913C66.2609 18.9529 69.7147 26.9002 69.7147 35.1842H70.2147C70.2147 26.7596 66.7021 18.6826 60.4538 12.7293L60.1089 13.0913ZM36.9035 3.9342C45.6094 3.9342 53.9564 7.2294 60.1089 13.0913L60.4538 12.7293C54.2059 6.77649 45.7344 3.4342 36.9035 3.4342V3.9342ZM33.9279 50.3085H40.1698V49.8085H33.9279V50.3085ZM33.6779 44.2247V50.0585H34.1779V44.2247H33.6779ZM40.2558 43.9747H33.9279V44.4747H40.2558V43.9747ZM40.4198 50.0622L40.5058 44.2284L40.0058 44.221L39.9199 50.0548L40.4198 50.0622ZM45.9999 33.0745C45.126 34.0907 44.1131 34.9912 42.9879 35.752L43.268 36.1662C44.4295 35.3809 45.4758 34.4508 46.379 33.4005L45.9999 33.0745ZM45.9394 33.228V33.2375H46.4394V33.228H45.9394ZM47.3678 28.7631C47.418 30.3051 46.9344 31.8212 45.9896 33.0778L46.3893 33.3783C47.4013 32.0323 47.9215 30.4048 47.8675 28.7469L47.3678 28.7631ZM44.3108 22.5436C46.3748 23.9814 47.5236 26.317 47.3682 28.739L47.8672 28.771C48.0343 26.1676 46.7984 23.6671 44.5966 22.1333L44.3108 22.5436ZM36.604 20.4494C39.3452 20.3516 42.0471 21.0873 44.3185 22.5487L44.589 22.1282C42.2305 20.6107 39.4277 19.8483 36.5861 19.9498L36.604 20.4494ZM30.5987 21.9713C32.3947 20.9167 34.4772 20.3872 36.5877 20.4495L36.6025 19.9497C34.3992 19.8846 32.2237 20.4373 30.3455 21.5401L30.5987 21.9713ZM26.5394 29.8106C26.3478 26.7 27.8899 23.7179 30.6076 21.9658L30.3367 21.5456C27.4734 23.3915 25.8371 26.5427 26.0404 29.8414L26.5394 29.8106ZM32.3996 29.576H26.2899V30.076H32.3996V29.576ZM33.2154 26.4743C32.5299 27.4688 32.1593 28.6319 32.1496 29.824L32.6496 29.828C32.6585 28.7375 32.9974 27.6716 33.627 26.758L33.2154 26.4743ZM36.9113 24.811C35.4597 24.6829 34.0445 25.315 33.2179 26.4707L33.6245 26.7616C34.3442 25.7555 35.585 25.1959 36.8673 25.3091L36.9113 24.811ZM40.445 26.1539C39.5597 25.1586 38.2129 24.6568 36.8609 24.8117L36.9178 25.3084C38.1134 25.1715 39.2978 25.6164 40.0715 26.4862L40.445 26.1539ZM41.4273 29.1614C41.4543 28.0887 41.1132 27.0383 40.4578 26.1695L40.0587 26.4706C40.6473 27.2509 40.9516 28.1911 40.9274 29.1487L41.4273 29.1614ZM40.5598 31.7381C41.1299 30.988 41.4345 30.0822 41.4273 29.1531L40.9274 29.157C40.9337 29.9735 40.6661 30.7718 40.1617 31.4356L40.5598 31.7381ZM39.2791 32.9584C39.7715 32.62 40.2042 32.208 40.5601 31.7377L40.1614 31.436C39.8383 31.8628 39.4449 32.2378 38.9959 32.5463L39.2791 32.9584ZM37.7582 34.1168L39.2889 32.9513L38.986 32.5535L37.4553 33.719L37.7582 34.1168ZM34.9689 37.0536C35.6222 35.8754 36.5746 34.8698 37.7408 34.1289L37.4727 33.7068C36.2377 34.4915 35.2264 35.5581 34.5316 36.8112L34.9689 37.0536ZM34.2861 41.5961C34.2773 40.0421 34.514 38.4956 34.9884 37.0084L34.5121 36.8564C34.0218 38.3934 33.777 39.9922 33.7861 41.599L34.2861 41.5961ZM39.6565 41.3476H34.0361V41.8476H39.6565V41.3476ZM39.7231 39.1966C39.5058 39.9806 39.3993 40.7888 39.4065 41.5998L39.9065 41.5953C39.8997 40.8311 40.0001 40.0693 40.2049 39.3302L39.7231 39.1966ZM41.4551 36.9189C40.6445 37.4791 40.0388 38.271 39.7274 39.1826L40.2006 39.3442C40.4764 38.5369 41.0142 37.8314 41.7394 37.3302L41.4551 36.9189ZM42.9765 35.7602L41.4458 36.9257L41.7487 37.3235L43.2794 36.158L42.9765 35.7602Z" fill="white"/>
</svg>
