<svg width="25" height="23" viewBox="0 0 25 23" fill="none" xmlns="http://www.w3.org/2000/svg">
<path fill-rule="evenodd" clip-rule="evenodd" d="M21.6461 8.42113C21.8022 8.85341 21.9259 9.30315 22.0155 9.7639H23.9712H24.3383V10.1185V12.8814V13.236H23.9712H22.016C21.9264 13.6969 21.8027 14.1465 21.6466 14.5788L23.337 15.5221L23.6547 15.6994L23.4712 16.0065L22.041 18.3984L21.8573 18.7055L21.5395 18.528L19.8517 17.5859C19.5349 17.9408 19.1937 18.2706 18.8329 18.5708L19.8092 20.2021L19.9931 20.5093L19.675 20.6866L17.1975 22.0681L16.8796 22.2454L16.6961 21.9383L15.7194 20.3042C15.2717 20.455 14.8058 20.5747 14.3282 20.661V22.5517V22.9062H13.9611H11.101H10.7339V22.5517V20.6612C10.2573 20.5746 9.79234 20.4552 9.34537 20.3045L8.3687 21.9386L8.18516 22.2456L7.86727 22.0683L5.3898 20.6868L5.07202 20.5096L5.25528 20.2026L6.22951 18.5707C5.86559 18.2673 5.52507 17.9381 5.21258 17.5875L3.52231 18.5298L3.20442 18.707L3.02088 18.4L1.59077 16.0065L1.40723 15.6993L1.72524 15.522L3.41807 14.5787C3.2606 14.1437 3.13688 13.694 3.04831 13.2361H1.09022H0.723145V12.8815V10.1186V9.76401H1.09022H3.04823C3.1368 9.30601 3.26064 8.8565 3.41799 8.42129L1.72492 7.4765L1.40703 7.29921L1.59057 6.99212L3.02072 4.60012L3.20426 4.29315L3.52203 4.47034L5.2123 5.41261C5.52479 5.06215 5.86531 4.73285 6.22935 4.42943L5.25512 2.79754L5.07182 2.49046L5.3896 2.31327L7.86699 0.93173L8.18488 0.754431L8.36842 1.06152L9.34521 2.69599C9.79805 2.54353 10.2629 2.4239 10.7335 2.33869V0.448348V0.09375H11.1006H13.9607H14.3278V0.448348V2.33846C14.8027 2.42394 15.2685 2.54357 15.7191 2.69568L16.6957 1.06156L16.8792 0.75447L17.1971 0.931769L19.6747 2.31304L19.9928 2.49046L19.8088 2.79766L18.8325 4.42893C19.1929 4.7286 19.5339 5.05801 19.851 5.41273L21.5391 4.4703L21.8571 4.29288L22.0406 4.6002L23.4708 6.99351L23.6542 7.30048L23.3364 7.47778L21.6461 8.42113ZM12.5307 15.2505C14.6716 15.2505 16.4133 13.568 16.4133 11.5C16.4133 9.43197 14.6715 7.74952 12.5307 7.74952C10.3899 7.74952 8.64829 9.43197 8.64829 11.5C8.64829 13.568 10.3899 15.2505 12.5307 15.2505Z" fill="white"/>
</svg>
