<svg width="438" height="438" viewBox="0 0 438 438" fill="none" xmlns="http://www.w3.org/2000/svg">
<g clip-path="url(#clip0_2106_65)">
<path d="M426.474 289.742H388.235C381.87 289.742 376.71 294.902 376.71 301.267V392.539C376.71 398.904 381.87 404.065 388.235 404.065H426.474C432.839 404.065 438 398.905 438 392.539V301.267C438 294.902 432.84 289.742 426.474 289.742Z" fill="white"/>
<path d="M332.297 245.918H294.058C287.693 245.918 282.532 251.078 282.532 257.443V392.54C282.532 398.904 287.692 404.065 294.058 404.065H332.297C338.662 404.065 343.822 398.905 343.822 392.54V257.444C343.823 251.078 338.663 245.918 332.297 245.918Z" fill="white"/>
<path d="M143.942 289.742H105.703C99.338 289.742 94.1782 294.902 94.1782 301.267V392.539C94.1782 398.904 99.338 404.065 105.703 404.065H143.942C150.307 404.065 155.468 398.905 155.468 392.539V301.267C155.468 294.902 150.307 289.742 143.942 289.742Z" fill="white"/>
<path d="M49.7648 245.918H11.5257C5.15978 245.918 0 251.078 0 257.444V392.54C0 398.905 5.15978 404.066 11.5257 404.066H49.7648C56.1297 404.066 61.2895 398.906 61.2895 392.54V257.444C61.2895 251.078 56.1297 245.918 49.7648 245.918Z" fill="white"/>
<path d="M238.12 187.65H199.88C193.515 187.65 188.355 192.81 188.355 199.175V392.54C188.355 398.905 193.515 404.066 199.88 404.066H238.12C244.484 404.066 249.645 398.906 249.645 392.54V199.175C249.645 192.81 244.484 187.65 238.12 187.65Z" fill="white"/>
<path d="M416.201 233.047C423.956 233.047 430.492 226.728 430.492 218.757V172.572C430.492 164.679 424.093 158.281 416.201 158.281C408.309 158.281 401.911 164.679 401.911 172.572V184.117L256.769 38.1496C253.77 35.1343 249.59 33.6081 245.348 33.994C241.112 34.3779 237.267 36.6281 234.857 40.1341L125.512 199.289L29.4781 138.111C22.8217 133.87 13.9874 135.828 9.74788 142.486C5.50745 149.142 7.46523 157.975 14.1226 162.216L121.797 230.81C124.174 232.323 126.833 233.049 129.462 233.049C134.019 233.049 138.489 230.872 141.253 226.85L248.655 70.523L381.839 204.467H370.016C362.124 204.467 355.725 210.865 355.725 218.757C355.725 226.649 362.124 233.047 370.016 233.047C376.408 233.047 409.695 233.047 416.167 233.047H416.201Z" fill="white"/>
</g>
<defs>
<clipPath id="clip0_2106_65">
<rect width="438" height="438" fill="white"/>
</clipPath>
</defs>
</svg>
