<svg width="23" height="24" viewBox="0 0 23 24" fill="none" xmlns="http://www.w3.org/2000/svg">
<path fill-rule="evenodd" clip-rule="evenodd" d="M11.4749 0.75C8.08851 0.75 5.34326 3.36561 5.34326 6.59212C5.34326 9.81864 8.08851 12.4342 11.4749 12.4342C14.8614 12.4342 17.6066 9.81864 17.6066 6.59212C17.5975 3.3692 14.8576 0.758654 11.4749 0.75Z" fill="white"/>
<path fill-rule="evenodd" clip-rule="evenodd" d="M21.9967 17.1019C21.8341 16.724 21.6273 16.3647 21.3804 16.0309C20.1758 14.3084 18.2569 13.1575 16.1059 12.8674C15.8327 12.8346 15.5564 12.8982 15.329 13.0462C13.0324 14.6451 9.91409 14.6451 7.61746 13.0462C7.39559 12.8868 7.11432 12.8221 6.84052 12.8674C4.68702 13.1509 2.76558 14.3034 1.56608 16.0309C1.32458 16.3679 1.11815 16.7266 0.94972 17.1019C0.878072 17.2585 0.888136 17.4382 0.976878 17.5867C1.19592 17.9404 1.43724 18.2812 1.6995 18.6071C2.06668 19.0841 2.47891 19.5281 2.93103 19.9335C3.32311 20.2933 3.73415 20.6339 4.16256 20.9539C8.48627 24.0152 14.4047 24.0152 18.7284 20.9539C19.1632 20.6413 19.5747 20.3003 19.9599 19.9335C20.4048 19.5214 20.8165 19.0781 21.1915 18.6071C21.4566 18.2832 21.6981 17.9423 21.9141 17.5867C22.0438 17.4568 22.0766 17.2643 21.9967 17.1019Z" fill="white"/>
</svg>
