<svg width="167" height="167" viewBox="0 0 167 167" fill="none" xmlns="http://www.w3.org/2000/svg">
<path d="M119.834 36.0999C120.523 36.7013 120.78 37.6108 121.282 38.3457C121.222 38.666 121.519 39.0587 121.655 39.3444L122.309 40.8859C123.081 42.7936 123.767 44.7217 124.234 46.7283C124.385 47.3779 124.569 48.0513 124.638 48.7136C123.553 48.0148 122.342 47.0499 121.627 45.9592C121.261 45.4 120.977 44.7522 120.673 44.156C120.898 41.3608 120.424 38.8121 119.834 36.0999Z" fill="#574845"/>
<path d="M112.919 74.5972C113.614 74.0604 114.433 73.617 115.16 73.1134C117.016 71.8283 118.914 70.3871 120.54 68.8241C121.578 67.8268 122.568 66.7294 123.509 65.6395C124 65.0705 124.461 64.3515 125.032 63.8736C125.262 63.6813 125.512 63.619 125.797 63.5515L131.519 69.0819C131.217 69.2207 130.634 69.19 130.287 69.2129L126.677 69.4024C124.66 69.5102 122.612 69.7323 120.594 69.7375L123.928 75.3668L112.919 74.5972Z" fill="#D6CAC3"/>
<path d="M54.7142 75.832C53.6497 75.413 52.4626 74.8592 51.3463 74.6245C50.6183 74.4714 49.6383 74.6175 48.8874 74.6811L42.5967 75.4616L45.3785 69.8574C42.1249 69.0248 38.7376 68.9085 35.3981 68.7906L40.2993 63.9709C40.0958 63.7071 39.4875 63.4321 39.1788 63.2392L33.3683 59.7981L37.993 57.1344C38.3006 56.9609 39.2561 56.5739 39.4179 56.2881L39.4687 56.188C39.4322 56.4988 39.4833 56.6247 39.6057 56.9075C40.0165 57.8559 40.2682 58.9078 40.626 59.8825C41.3088 61.7427 42.3702 63.4244 43.5085 65.0375C44.7136 66.7452 46.2727 68.2438 47.8288 69.6268C49.5639 71.1689 51.3342 72.6011 53.2782 73.8732L58.1647 76.7339C58.6852 77.0128 59.6586 77.2691 59.9509 77.7605L54.7142 75.832Z" fill="#D6CAC3"/>
<path d="M126.857 96.3345C127.592 89.0059 128.812 81.6845 131.178 74.6907C132.515 70.7385 134.129 67.0151 136.397 63.5029C138.082 60.8942 140.028 58.4661 142.438 56.4887C144.631 54.69 147.112 53.2793 149.794 52.3564C151.373 51.8132 152.991 51.4624 154.625 51.1333C153.602 52.9943 153.161 54.9456 152.979 57.0532C152.44 63.2959 154.411 69.549 155.725 75.5903C156.638 79.7873 157.481 84.1042 157.764 88.3944C158.116 93.7356 157.696 99.0284 156.608 104.26C155.628 108.972 154.068 113.681 151.777 117.93C146.663 127.414 138.009 134.36 127.659 137.373L124.204 138.133L124.156 138.029C124.208 137.718 124.186 137.427 124.434 137.219C129.244 135.885 133.839 134.455 137.973 131.55C138.767 131.227 139.654 130.416 140.343 129.903C143.673 127.42 146.613 124.302 148.905 120.832C149.78 119.509 150.509 118.128 151.259 116.734C151.499 116.462 151.695 115.893 151.862 115.551C153.426 112.353 154.54 108.971 155.425 105.527C156.151 102.322 156.66 99.0343 156.841 95.75L156.905 90.5256C156.965 87.3933 156.395 84.0468 155.824 80.9694C155.661 79.6547 155.323 78.3189 155.053 77.022L153.864 71.3666C152.718 66.262 151.283 60.6256 152.434 55.4065C152.735 54.0419 153.211 52.9628 153.81 51.7173C151.929 52.2108 150.129 52.7635 148.362 53.5851C141.075 56.9728 136.554 63.3964 133.502 70.6079L131.586 75.7617L129.085 85.4593L127.273 96.1281L127.086 96.611L126.857 96.3345Z" fill="#010101"/>
<path d="M77.9166 15.317C77.6362 13.7448 77.3273 12.2497 76.6473 10.7945C76.3283 10.1119 75.9095 9.49033 75.5445 8.83343C78.0061 9.38406 80.3324 10.0983 81.7755 12.3538L82.3176 13.3378L82.4323 13.4138L82.4318 13.338C82.4575 12.3186 83.7459 11.0086 84.4526 10.3699C86.5445 8.47944 89.3443 7.29372 92.153 7.05518C90.4722 9.43525 89.5381 11.8241 89.2612 14.7277C89.4066 14.7475 89.9486 14.3072 90.1015 14.2097C90.6361 13.8688 91.2562 13.5844 91.8581 13.3842C93.5348 12.8264 95.3591 12.7957 97.109 12.7805C95.9327 13.7467 94.9721 14.8812 94.0874 16.115C92.5588 18.1208 91.2725 20.7302 90.6691 23.1781C89.5281 22.6177 88.5741 21.963 87.737 20.9973C86.9385 20.0764 86.3294 18.9751 85.5612 18.0205C84.9606 17.2741 84.2417 16.6372 83.5382 15.9905C83.9235 18.152 83.8984 20.1507 84.9213 22.1543C83.3733 21.8238 82.1038 21.3657 80.8151 20.4285C79.0495 19.1443 78.2547 17.4153 77.9166 15.317Z" fill="#302723"/>
<path d="M45.0869 38.6334C44.3432 37.4359 43.8323 36.0676 43.3303 34.7536C42.4668 32.4924 41.6941 30.1675 41.1384 27.8099C40.3896 24.6328 39.9024 21.2664 39.9453 18.0003C39.9672 16.3482 40.1283 14.4321 41.0362 13.0014C41.684 11.9803 42.7166 11.2799 43.8954 11.0173L44.0332 10.9876L44.9098 10.8534C47.437 10.6799 50.0816 11.2025 52.4716 11.9936C57.003 13.4935 60.8055 15.8205 64.3989 18.9408L60.0938 21.2698L56.9733 23.3616C53.2355 26.1326 50.3464 29.6012 47.8323 33.4853L45.0869 38.6334Z" fill="#302723"/>
<path d="M47.8323 33.4853C46.2993 30.2647 45.384 26.6269 44.8302 23.1146C44.5321 21.224 44.1279 18.064 45.3614 16.4554C45.7674 15.9258 46.3756 15.635 47.0288 15.5612C51.2874 15.08 56.9021 18.7028 60.0937 21.2698L56.9732 23.3616C53.2355 26.1325 50.3464 29.6012 47.8323 33.4853Z" fill="#F38B6A"/>
<path d="M101.54 18.982C104.481 16.5051 107.594 14.5981 111.127 13.0833C112.934 12.3084 114.798 11.6457 116.729 11.2528C118.174 10.9587 119.707 10.7333 121.186 10.854L121.581 10.9032C123.061 11.1171 124.517 11.6377 125.457 12.8693C127.3 15.283 126.584 19.0044 126.188 21.7838C125.369 27.5351 123.587 33.0333 121.282 38.3457C120.78 37.6108 120.523 36.7013 119.834 36.0998C119.565 35.4224 119.119 34.7956 118.727 34.1841C117.265 32.0736 115.703 29.9513 113.944 28.0758C111.557 25.5314 108.764 23.3415 105.857 21.4296L101.54 18.982Z" fill="#302723"/>
<path d="M105.857 21.4298C108.92 19.0425 112.298 16.9178 116.098 15.9296C117.123 15.663 118.216 15.4304 119.281 15.5636C119.957 15.6482 120.687 16.0262 121.092 16.5846C122.506 18.533 121.587 23.4241 121.151 25.7072L118.727 34.1842C117.265 32.0737 115.703 29.9515 113.944 28.076C111.557 25.5315 108.764 23.3416 105.857 21.4298Z" fill="#F38B6A"/>
<path d="M131.586 75.7617L133.502 70.6079C136.554 63.3964 141.075 56.9727 148.362 53.5851C150.129 52.7635 151.929 52.2108 153.81 51.7173C153.211 52.9628 152.735 54.0419 152.434 55.4065C151.283 60.6255 152.718 66.2619 153.864 71.3665L155.053 77.022C155.323 78.3189 155.661 79.6547 155.824 80.9694C152.804 81.329 149.813 81.5309 146.777 81.2101C141.414 80.6434 136.255 78.3393 131.586 75.7617Z" fill="#302723"/>
<path d="M42.381 134.901C41.8811 134.634 41.4441 134.189 41.0124 133.824L37.645 130.823C29.2625 123.196 21.96 114.237 15.8771 104.692C13.4747 100.923 11.1777 96.985 9.32379 92.9129C11.6326 93.0757 14.0117 93.3272 16.2478 93.9278L14.7933 87.4257L21.4892 90.168C21.5538 89.7554 21.3605 89.0966 21.3031 88.6577L20.749 84.317C21.6383 84.9759 22.7944 85.4332 23.7718 85.9604C25.333 86.8024 26.8109 87.712 28.2566 88.7396L28.2121 82.511L29.4935 83.6068L39.6764 94.3494L37.1079 98.2868C36.4592 99.2803 35.7307 100.28 35.2292 101.358C34.524 102.874 34.3485 104.615 34.6917 106.246C35.0769 108.078 36.2596 109.724 37.8355 110.724C38.5984 111.208 39.4446 111.576 40.2511 111.982L44.5763 114.103L46.2584 114.889C46.399 114.957 46.724 115.067 46.822 115.162C46.8514 115.19 46.8703 115.23 46.8822 115.269L48.1555 125.768L47.1715 125.614C44.5083 127.791 42.8305 130.334 42.4821 133.812L42.381 134.901Z" fill="#746E6C"/>
<path d="M131.586 75.7617C136.255 78.3393 141.414 80.6434 146.777 81.2101C149.813 81.5309 152.804 81.329 155.824 80.9694C156.395 84.0468 156.965 87.3933 156.905 90.5256L156.841 95.75C156.66 99.0342 156.151 102.322 155.425 105.527C154.54 108.971 153.426 112.353 151.862 115.551C151.695 115.893 151.499 116.462 151.259 116.734C146.234 116.238 141.004 114.899 136.396 112.834C134.077 111.795 131.902 110.559 129.684 109.329C130.154 108.706 130.655 108.109 130.976 107.392C132.423 104.165 129.918 100.888 128.183 98.3421C127.864 97.8749 127.299 97.2538 127.123 96.7289L127.086 96.611L127.273 96.1281L129.085 85.4593L131.586 75.7617Z" fill="#302723"/>
<path d="M131.586 75.7617C136.255 78.3393 141.414 80.6434 146.777 81.2101C149.813 81.5309 152.804 81.329 155.824 80.9694C156.395 84.0468 156.965 87.3933 156.905 90.5256C153.501 90.9793 149.933 91.1782 146.508 90.8648C142.24 90.4742 137.918 89.3045 133.947 87.7047C132.312 87.0461 130.601 86.3605 129.085 85.4593L131.586 75.7617Z" fill="#D6CAC3"/>
<path d="M127.273 96.1282C129.189 97.1033 130.92 98.4978 132.815 99.5438C137.706 102.244 143.186 104.184 148.713 105.009C150.954 105.344 153.164 105.453 155.425 105.527C154.54 108.971 153.426 112.353 151.862 115.551C151.695 115.893 151.499 116.462 151.259 116.734C146.234 116.238 141.004 114.899 136.396 112.834C134.077 111.795 131.902 110.559 129.684 109.329C130.154 108.706 130.655 108.11 130.976 107.392C132.423 104.165 129.918 100.888 128.183 98.3422C127.864 97.875 127.299 97.254 127.123 96.729L127.086 96.6111L127.273 96.1282Z" fill="#D6CAC3"/>
<path d="M46.4087 147.78C47.3011 147.016 48.2188 146.275 49.2464 145.698C52.3925 143.929 56.5861 143.339 60.1526 143.735C60.9408 143.822 61.7257 143.993 62.4953 144.183C62.9017 144.283 63.2708 144.465 63.6966 144.46L63.7671 144.458C65.9764 145.641 68.3801 147.337 69.6714 149.527C70.1874 150.147 70.5415 150.953 70.9009 151.67L94.7738 151.671C94.9268 151.405 95.0675 151.12 95.2777 150.894C95.555 150.32 96.0198 149.758 96.4245 149.268C98.102 147.236 100.288 145.639 102.655 144.503L102.74 144.499C103.18 144.47 103.556 144.293 103.982 144.199L106.242 143.815C107.056 143.71 107.91 143.725 108.73 143.742C111.53 143.799 114.617 144.391 117.102 145.742C117.732 146.084 118.327 146.506 118.904 146.93C119.182 147.134 119.504 147.43 119.814 147.573L121.162 148.87L130.447 150.331C133.234 150.86 136.247 151.427 138.829 152.618C139.482 152.919 140.287 153.282 140.754 153.849C140.898 154.023 141.019 154.256 140.977 154.489C140.879 155.045 140.375 155.416 139.927 155.695C137.629 157.124 134.688 157.711 132.066 158.243L124.761 159.505L103.312 161.472L78.2082 161.952L69.03 161.764L58.874 161.151L42.1548 159.448C39.4045 159.041 36.6452 158.609 33.9388 157.962C32.2424 157.556 27.487 156.513 26.5655 155.037C26.4109 154.79 26.3734 154.516 26.4323 154.224C26.545 153.665 27.2611 153.195 27.7176 152.934C29.8799 151.7 32.6426 151.107 35.0635 150.609C38.3074 149.941 41.6037 149.427 44.9031 149.138L46.4087 147.78Z" fill="#1B5A60"/>
<path d="M46.4087 147.78C47.3011 147.016 48.2188 146.275 49.2464 145.698C52.3925 143.929 56.5861 143.339 60.1526 143.735C60.9408 143.822 61.7257 143.993 62.4953 144.183C62.9017 144.283 63.2708 144.465 63.6966 144.46L63.7671 144.458C65.9764 145.641 68.3801 147.337 69.6714 149.527C70.1874 150.147 70.5415 150.953 70.9009 151.67C71.254 152.599 71.6097 153.526 71.7588 154.514C71.8548 155.15 71.8374 155.812 71.8423 156.455L41.4988 156.494C41.5019 154.835 41.9736 152.811 43.0106 151.479C43.5154 150.6 44.2101 149.869 44.9031 149.138L46.4087 147.78Z" fill="#302723"/>
<path d="M46.4087 147.78C47.3011 147.016 48.2188 146.275 49.2464 145.698C52.3925 143.929 56.5861 143.339 60.1526 143.735C60.9408 143.822 61.7258 143.993 62.4954 144.183C62.9018 144.283 63.2708 144.465 63.6967 144.46L63.7671 144.458C65.9764 145.641 68.3802 147.337 69.6715 149.527L69.556 149.557L69.1817 149.101C67.035 146.522 63.3478 145.203 60.0876 144.949C55.0081 144.552 49.1326 145.828 45.198 149.21C44.7451 149.599 44.2899 150.024 43.8912 150.468C43.6332 150.755 43.3608 151.341 43.0107 151.479C43.5154 150.6 44.2102 149.869 44.9031 149.138L46.4087 147.78Z" fill="#010101"/>
<path d="M102.655 144.503L102.74 144.499C103.18 144.469 103.557 144.292 103.982 144.199L106.242 143.814C107.056 143.71 107.91 143.725 108.73 143.742C111.53 143.799 114.617 144.391 117.102 145.742C117.732 146.084 118.327 146.506 118.904 146.929C119.182 147.133 119.504 147.43 119.814 147.573L121.162 148.87C122.884 151.052 124.096 153.459 123.928 156.324L123.911 156.407C123.548 156.632 96.2473 156.45 93.6922 156.435C93.6733 154.629 94.0673 153.311 94.7738 151.67C94.9268 151.405 95.0676 151.119 95.2778 150.894C95.555 150.32 96.0198 149.758 96.4246 149.267C98.1021 147.236 100.288 145.639 102.655 144.503Z" fill="#302723"/>
<path d="M102.655 144.503L102.74 144.499C103.18 144.469 103.556 144.292 103.982 144.199L106.242 143.814C107.056 143.71 107.91 143.725 108.73 143.742C111.53 143.799 114.617 144.391 117.102 145.742C117.732 146.084 118.327 146.506 118.904 146.929C119.182 147.133 119.504 147.43 119.814 147.573L121.162 148.87C122.884 151.052 124.096 153.459 123.928 156.324C123.526 155.977 123.468 155.276 123.332 154.774C123.146 154.087 122.959 153.389 122.679 152.733C121.36 149.634 118.563 147.338 115.486 146.105C111.358 144.449 106.482 144.415 102.296 145.834C100.836 146.329 99.4578 146.946 98.2376 147.902C97.5343 148.454 96.8914 149.036 96.3149 149.722C96.0334 150.056 95.6588 150.73 95.2777 150.894C95.555 150.32 96.0197 149.758 96.4245 149.267C98.102 147.236 100.288 145.639 102.655 144.503Z" fill="#010101"/>
<path d="M110.997 75.5208C113.381 78.0015 115.555 80.6964 117.656 83.4185L121.963 89.1963L124.749 93.2852L126.106 95.3332C126.329 95.6609 126.566 96.0629 126.857 96.3346L127.086 96.611L127.123 96.7289C127.299 97.2539 127.864 97.8749 128.183 98.3422C129.918 100.888 132.423 104.165 130.976 107.392C130.654 108.11 130.154 108.706 129.684 109.329C131.902 110.559 134.077 111.795 136.396 112.834C141.004 114.899 146.234 116.238 151.259 116.734C150.509 118.128 149.78 119.509 148.905 120.833C146.613 124.302 143.673 127.42 140.343 129.903C139.654 130.416 138.767 131.227 137.973 131.55C133.839 134.455 129.244 135.885 124.434 137.219C124.186 137.427 124.208 137.718 124.156 138.029L124.204 138.133C124.237 138.633 124.026 139.223 123.889 139.704C123.403 141.418 122.686 143.057 121.774 144.586L119.814 147.573C119.504 147.43 119.182 147.134 118.904 146.93C118.327 146.506 117.732 146.084 117.102 145.742C114.617 144.391 111.53 143.799 108.73 143.742C107.91 143.725 107.056 143.71 106.242 143.814L103.982 144.199C103.556 144.293 103.18 144.47 102.74 144.499L102.655 144.503L106.83 141.715L112.805 141.728L112.857 124.312L112.855 120.153C112.855 119.557 112.951 118.757 112.791 118.19C112.444 118.348 112.06 118.494 111.689 118.583C110.815 118.793 109.94 118.787 109.161 118.296C108.486 117.87 108.187 117.339 108.006 116.581C107.71 115.498 108.293 114.502 109.168 113.893C109.416 113.721 109.784 113.594 109.902 113.32L109.635 113.381C108.58 113.616 107.414 113.76 106.466 113.113C105.889 112.719 105.611 112.155 105.481 111.486C105.393 111.214 105.397 110.658 105.486 110.384C105.717 109.674 106.462 108.999 107.125 108.695C107.525 108.512 107.967 108.407 108.355 108.201L108.465 108.142L108.076 108.133C107.27 108.098 106.454 107.803 105.914 107.178C105.5 106.699 105.379 106.11 105.412 105.495C105.447 105.195 105.521 104.907 105.641 104.629C106.388 102.894 109.829 102.16 111.468 101.741C111.905 101.629 112.4 101.567 112.815 101.395L112.935 101.343L112.933 101.302C112.828 100.724 112.855 100.085 112.854 99.4968L112.853 96.7968L112.857 87.2426L107.928 87.2337C107.363 87.2303 106.569 87.3244 106.028 87.1889L105.945 87.161C105.155 84.2886 103.691 81.6358 102.405 78.9686L110.997 75.5208Z" fill="#302723"/>
<path d="M105.412 105.495C105.577 105.627 105.667 105.713 105.773 105.897C106.076 106.427 106.745 106.637 107.301 106.78C109.12 107.251 111.247 106.511 112.983 105.98C111.586 106.975 110.103 107.636 108.465 108.142L108.076 108.133C107.27 108.098 106.454 107.803 105.914 107.178C105.5 106.699 105.379 106.11 105.412 105.495Z" fill="#010101"/>
<path d="M117.728 124.676L117.544 124.756C117.367 124.724 117.247 124.707 117.102 124.598C117.112 123.73 117.355 122.802 117.495 121.942C117.843 119.812 118.102 117.878 117.957 115.717C118.211 115.588 118.448 115.487 118.72 115.403L118.805 115.479C118.769 118.505 118.427 121.734 117.728 124.676Z" fill="#010101"/>
<path d="M108.006 116.581C108.126 116.614 108.217 116.607 108.291 116.71C108.685 117.266 109.304 117.501 109.958 117.609C112.092 117.962 114.096 116.335 115.877 115.462C114.955 116.521 114.033 117.503 112.791 118.19C112.445 118.348 112.06 118.494 111.689 118.583C110.815 118.793 109.94 118.787 109.161 118.296C108.486 117.87 108.187 117.339 108.006 116.581Z" fill="#010101"/>
<path d="M105.481 111.486C105.626 111.522 105.661 111.509 105.767 111.62C106.318 112.189 106.969 112.365 107.746 112.373C109.108 112.388 110.331 112.004 111.613 111.591L114.14 110.728C113.506 111.252 112.698 111.656 111.993 112.088C111.316 112.503 110.636 113.017 109.902 113.32L109.636 113.381C108.58 113.615 107.414 113.76 106.466 113.113C105.889 112.719 105.611 112.155 105.481 111.486Z" fill="#010101"/>
<path d="M112.933 101.302C113.689 100.919 114.451 100.712 115.212 100.375C114.888 99.6911 114.224 98.8905 114.347 98.1061L114.486 98.01C115.074 98.5371 115.572 99.3794 116.021 100.032C118.826 99.1298 121.565 98.5515 124.528 98.7109C124.858 98.7287 125.465 98.6822 125.754 98.8375L125.82 98.8855C123.693 99.0011 121.737 99.157 119.659 99.6864L115.323 100.958C114.855 101.081 113.351 101.578 112.935 101.343L112.933 101.302Z" fill="#010101"/>
<path d="M118.72 115.403L118.896 115.139C119.169 114.74 119.545 114.526 119.929 114.252C120.721 113.688 121.551 113.171 122.434 112.761C124.586 111.762 126.924 111.181 128.941 109.907C129.19 109.75 129.537 109.589 129.684 109.329C131.902 110.559 134.077 111.795 136.396 112.834C141.004 114.899 146.234 116.238 151.259 116.734C150.509 118.128 149.78 119.509 148.905 120.833C146.613 124.302 143.673 127.42 140.343 129.903C139.654 130.416 138.767 131.227 137.973 131.55C133.839 134.455 129.244 135.885 124.434 137.219C124.297 136.92 124.434 136.184 124.439 135.837C124.449 135.065 124.443 134.294 124.311 133.531C123.799 130.585 122.432 127.736 119.947 125.969C119.279 125.494 118.467 125.221 117.825 124.749L117.728 124.676C118.427 121.734 118.769 118.505 118.805 115.479L118.72 115.403Z" fill="#302723"/>
<path d="M118.805 115.479L118.952 115.397C119.833 116.583 120.538 117.88 121.458 119.045C125.774 124.508 131.479 128.992 137.973 131.55C133.839 134.455 129.244 135.885 124.434 137.219C124.297 136.92 124.434 136.184 124.439 135.837C124.449 135.064 124.443 134.294 124.311 133.531C123.799 130.585 122.432 127.736 119.947 125.969C119.279 125.494 118.467 125.221 117.825 124.749L117.728 124.676C118.427 121.734 118.769 118.505 118.805 115.479Z" fill="#D6CAC3"/>
<path d="M77.9166 15.3169C78.2546 17.4152 79.0495 19.1442 80.8151 20.4284C82.1038 21.3656 83.3733 21.8237 84.9213 22.1542C83.8984 20.1506 83.9235 18.1519 83.5381 15.9904C84.2417 16.6371 84.9606 17.274 85.5612 18.0204C86.3294 18.975 86.9385 20.0763 87.7369 20.9972C88.5741 21.9629 89.5281 22.6176 90.6691 23.178C91.2725 20.7301 92.5588 18.1207 94.0874 16.1149L101.54 18.982L105.857 21.4296C108.764 23.3414 111.557 25.5313 113.944 28.0758C115.703 29.9513 117.265 32.0735 118.727 34.184C119.119 34.7956 119.565 35.4223 119.834 36.0998C120.424 38.8121 120.898 41.3608 120.673 44.1559C120.977 44.7522 121.261 45.3999 121.627 45.9592C122.342 47.0499 123.553 48.0147 124.638 48.7135C126.876 50.2069 129.417 51.0287 132.032 51.5804L128.916 54.293C128.483 54.6388 128.063 55.0199 127.589 55.3069L128.759 55.8161L128.716 55.9315L128.013 56.0989L132.452 59.7647L128.409 62.1096C127.572 62.5915 126.692 63.19 125.797 63.5514C125.512 63.6189 125.262 63.6812 125.032 63.8735C124.461 64.3513 124 65.0704 123.509 65.6394C122.568 66.7293 121.578 67.8267 120.54 68.824C118.914 70.387 117.016 71.8282 115.16 73.1133C114.433 73.6169 113.613 74.0603 112.919 74.597L110.997 75.5206L102.405 78.9684C99.4009 80.1051 96.0749 80.7506 92.8988 81.2004C86.3044 82.1345 79.6663 82.2286 73.0667 81.2953C70.0956 80.875 67.1961 80.3036 64.3442 79.3637L59.9509 77.7604C59.6586 77.269 58.6851 77.0127 58.1647 76.7338L53.2782 73.8731C51.3342 72.601 49.5639 71.1688 47.8288 69.6267C46.2727 68.2437 44.7136 66.7451 43.5085 65.0374C42.3702 63.4244 41.3088 61.7426 40.626 59.8825C40.2682 58.9077 40.0165 57.8558 39.6057 56.9074C39.4832 56.6246 39.4322 56.4987 39.4687 56.1879L39.5372 56.1377C39.3392 56.0582 39.1825 55.9392 39.0077 55.819L35.3829 52.1333C37.7098 51.1888 40.1237 50.2935 42.24 48.9259C42.2034 48.1809 42.3638 47.4171 42.4814 46.6833C42.7348 45.1033 43.0902 43.5453 43.6258 42.0353C44.0381 40.8728 44.5999 39.7655 45.0869 38.6333L47.8323 33.4852C50.3464 29.6011 53.2355 26.1325 56.9732 23.3615L60.0937 21.2697L64.3989 18.9407L68.0574 17.5266C71.2876 16.3879 74.5175 15.6889 77.9166 15.3169Z" fill="url(#paint0_linear_2097_221)"/>
<path d="M73.2184 63.4707C74.0508 64.3763 74.9212 65.2302 75.9452 65.9188C77.7487 67.1318 80.3922 68.2706 82.5697 68.3837C83.3459 68.4239 84.2004 68.3083 84.9611 68.1578C87.7179 67.6124 90.9576 66.6406 92.5718 64.1746C92.6435 64.0648 92.6682 64.0077 92.7776 63.9348C92.8133 64.1986 92.7295 64.4316 92.6607 64.6832C92.5062 65.0776 92.3342 65.4861 92.1106 65.8459C90.944 67.723 88.6052 68.5578 86.5635 69.0525C83.1712 69.8746 79.4701 69.5155 76.4591 67.6552C74.893 66.6877 73.6517 65.2947 73.2184 63.4707Z" fill="#AAB5B2"/>
<path d="M77.3148 55.8537C79.7423 54.7804 82.2997 54.5736 84.927 54.839C85.7783 54.9251 86.7198 55.0275 87.5243 55.3396L88.5488 55.8323C89.1082 56.156 89.723 56.6146 90.082 57.1608C90.4794 57.7654 90.5446 58.5169 90.3842 59.2115C89.8998 61.3078 87.7249 63.3594 85.9577 64.4645C84.9625 65.0868 83.7216 65.6465 82.5376 65.3611C79.9671 64.7415 77.22 62.483 75.8604 60.234C75.4254 59.5148 75.1107 58.6687 75.3555 57.8272C75.6373 56.8591 76.4884 56.3183 77.3148 55.8537Z" fill="#010101"/>
<path d="M81.8424 56.0536C83.232 55.9205 84.9405 56.0437 86.2914 56.4341C86.6322 56.5326 87.0217 56.6538 87.2007 56.9837C87.2087 57.2348 87.2423 57.3028 87.0471 57.4865C86.4187 58.0773 84.3526 58.0402 83.5233 58.0627C82.3507 58.0762 79.0976 58.1098 78.2404 57.3801C78.0692 57.2345 78.0319 57.1331 78.0304 56.917C78.831 56.182 80.8113 56.1281 81.8424 56.0536Z" fill="#1B5A60"/>
<path d="M39.0077 55.8191C39.7768 55.2656 40.5032 54.5958 41.2436 53.9978C43.7954 51.9364 46.265 49.9332 47.8383 46.9882C49.0787 44.6662 50.0382 42.2832 51.5545 40.1094C54.003 36.5996 57.6712 33.9309 61.9299 33.2017C64.9375 32.6867 68.2534 33.4566 70.7336 35.2171C73.2981 37.0377 75.1302 39.8747 75.9871 42.8815C76.2281 43.7271 76.3467 44.5768 76.4943 45.4405C76.5829 47.2822 76.5967 49.3748 75.7748 51.0723C75.3732 51.9013 74.7724 52.6376 74.1568 53.3166C72.7011 54.9217 70.9967 56.2236 69.1828 57.4046C65.4633 59.8263 60.8265 61.8981 59.4156 66.5065C58.9691 65.9671 58.5589 65.4171 58.0494 64.9327C56.0528 63.0347 53.6701 61.6814 51.2073 60.4894C47.4692 58.6803 43.5157 57.3133 39.5372 56.1378C39.3392 56.0584 39.1825 55.9393 39.0077 55.8191Z" fill="#302723"/>
<path d="M66.2803 39.8238C68.1233 39.494 70.2326 40.2095 71.7598 41.2017C73.5924 42.3922 74.6635 44.2538 75.1298 46.3572L75.2327 46.8723C75.5186 48.8907 74.7578 51.1749 73.5293 52.7741C72.2295 54.4663 70.255 55.3044 68.1898 55.5785C66.4665 55.9133 64.2802 55.2876 62.8334 54.3492C61.1812 53.2772 59.9168 51.4012 59.5285 49.4705L59.5017 49.3335L59.4036 48.8165C59.1161 46.7828 59.6097 44.5859 60.8774 42.9461C62.2365 41.1878 64.0647 40.0823 66.2803 39.8238Z" fill="#010101"/>
<path d="M66.3925 40.6356C68.1717 40.4275 69.9117 40.9213 71.3927 41.9052C72.9469 42.9376 74.0363 44.6072 74.3784 46.442C74.733 48.3429 74.3791 50.1941 73.2835 51.7922C72.1094 53.5046 70.3494 54.4823 68.3421 54.8415C66.4136 55.0186 64.5581 54.6396 62.9774 53.4863C61.5051 52.4119 60.5533 50.6902 60.2934 48.9018C60.0089 46.9449 60.4047 44.9408 61.6038 43.3423C62.7811 41.7726 64.4803 40.9138 66.3925 40.6356Z" fill="#FFFFFE"/>
<path d="M67.3508 42.9965C67.7189 42.9496 68.0941 42.9502 68.4643 42.9678C69.8404 43.0334 70.9392 43.6994 71.8485 44.6956C71.4845 44.443 71.1254 44.184 70.6838 44.0922C70.1927 43.9902 69.6301 44.1336 69.23 44.4301C68.8386 44.7202 68.5643 45.1781 68.4963 45.6617C68.4293 46.1389 68.5061 46.5955 68.8106 46.9775C69.1716 47.4305 69.639 47.6879 70.2144 47.7469C70.7407 47.8009 71.2307 47.6623 71.6266 47.3098C72.1996 46.7999 72.2373 46.1979 72.2774 45.4857L72.3456 45.6848C72.8954 47.3322 72.9166 48.6617 72.1308 50.2462L72.0085 50.4445C71.2847 51.5755 70.2074 52.442 68.8711 52.7204C67.6018 52.9849 66.3329 52.6423 65.2678 51.9322C64.2133 51.2294 63.4604 49.9264 63.2436 48.6943C63.0148 47.3937 63.3178 46.0436 64.0824 44.9653C64.8931 43.8218 65.9988 43.2285 67.3508 42.9965Z" fill="#010101"/>
<path d="M89.6405 44.4201L89.6702 44.3368C89.9468 43.49 90.0914 42.6073 90.3901 41.7574C91.4557 38.7255 93.6141 35.9413 96.4856 34.4344C99.4379 32.885 102.705 32.8091 105.85 33.7996C111.754 35.6596 115.936 40.79 118.675 46.1126C119.254 47.2386 119.652 48.4906 120.31 49.5665C121.548 51.5877 123.621 52.8583 125.578 54.0887C126.228 54.4969 126.898 54.9801 127.589 55.3071L128.759 55.8162L128.716 55.9317L128.013 56.099C127.442 56.214 126.842 56.2184 126.263 56.2908C125.462 56.3906 124.646 56.5715 123.861 56.7584C122.068 57.1857 120.288 57.8033 118.563 58.4546C113.634 60.3164 109.054 62.9069 105.46 66.811C105.498 65.3341 105.287 63.8949 104.435 62.6505C103.798 61.7196 102.74 60.9432 101.822 60.3049C99.8454 58.9299 97.6978 57.8525 95.7081 56.5014C94.0962 55.4069 92.5337 54.0127 91.3294 52.4819C89.3954 50.0234 89.2956 47.4 89.6405 44.4201Z" fill="#302723"/>
<path d="M98.347 39.8235C98.9123 39.7396 99.6991 39.7508 100.263 39.8394L100.379 39.8591C101.56 40.0449 102.564 40.4575 103.553 41.1297C105.382 42.3727 106.378 44.0896 106.789 46.2265C107.167 48.1868 106.614 50.1862 105.494 51.81C104.184 53.7097 102.214 54.7826 99.9844 55.1916L99.8971 55.2055C97.7516 55.5266 95.8164 54.8702 94.098 53.5957C92.472 52.3898 91.5957 50.888 91.3141 48.867C91.0409 46.9065 91.6191 44.6864 92.8362 43.1164C94.2498 41.2928 96.0416 40.1042 98.347 39.8235Z" fill="#010101"/>
<path d="M98.468 40.7166C100.145 40.5275 101.936 41.0381 103.294 42.0301C104.785 43.1199 105.883 44.8458 106.158 46.6833C106.432 48.5175 105.966 50.2917 104.876 51.782C103.63 53.4877 101.879 54.3846 99.8275 54.7045C97.9758 54.835 96.2973 54.4734 94.7769 53.3773C93.3923 52.3794 92.3774 50.8676 92.1134 49.1673C91.8082 47.2037 92.2632 45.1982 93.4471 43.5943C94.6758 41.9294 96.4511 41.0073 98.468 40.7166Z" fill="#FFFFFE"/>
<path d="M98.172 42.9981C98.5794 42.9465 99.0331 42.9524 99.4416 42.987C100.735 43.0962 101.928 43.8089 102.741 44.7949L102.389 44.5531C102.022 44.2979 101.723 44.1299 101.265 44.1162C100.743 44.1007 100.133 44.3412 99.7678 44.7154C99.4276 45.0637 99.2697 45.5683 99.3056 46.0481C99.3448 46.5701 99.6018 47.0938 100.002 47.4338C100.377 47.7533 100.903 47.9626 101.402 47.9074C101.935 47.8487 102.457 47.3647 102.785 46.9629C103.128 46.5414 103.174 46.1176 103.112 45.5991L103.097 45.4763C103.25 45.7462 103.369 46.0293 103.472 46.3218C103.928 47.6124 103.748 48.9112 103.177 50.1253L103.033 50.387C102.262 51.6795 101.101 52.5406 99.6277 52.8605C98.3972 53.1277 96.9676 52.7351 95.943 52.0379C94.8159 51.2714 94.1578 50.0832 93.9243 48.7555C93.7025 47.4948 94.0218 46.0532 94.7643 45.0117C95.6174 43.815 96.7515 43.2367 98.172 42.9981Z" fill="#010101"/>
<path d="M77.9166 15.3169C78.2547 17.4152 79.0495 19.1442 80.8151 20.4284C82.1038 21.3656 83.3733 21.8237 84.9213 22.1542C83.8984 20.1506 83.9235 18.1519 83.5382 15.9904C84.2417 16.6371 84.9606 17.274 85.5612 18.0204C86.3294 18.975 86.9385 20.0763 87.737 20.9972C88.5741 21.9629 89.5281 22.6176 90.6691 23.178C91.2725 20.7301 92.5588 18.1207 94.0874 16.1149L101.54 18.982L105.857 21.4296C108.764 23.3414 111.557 25.5313 113.944 28.0758C115.703 29.9513 117.265 32.0735 118.727 34.184C119.119 34.7956 119.565 35.4223 119.834 36.0998C120.424 38.8121 120.898 41.3608 120.673 44.1559L119.052 41.4601C118.038 39.8933 116.86 38.3572 115.602 36.9783C112.185 33.2323 107.401 30.1051 102.208 29.8936C98.5628 29.7452 95.1422 31.0918 92.4862 33.5667C90.3951 35.5153 89.0392 37.9635 88.0943 40.6365C87.7215 41.691 87.362 42.9214 87.3229 44.0419C86.7971 47.9968 87.3881 52.0437 88.5488 55.8322L87.5243 55.3395C86.7198 55.0274 85.7783 54.925 84.927 54.8389C82.2997 54.5735 79.7423 54.7803 77.3148 55.8536C78.5132 52.6993 78.8625 48.9058 78.7558 45.5523C78.6906 41.2021 76.6096 36.6078 73.4917 33.5969C70.7982 30.9955 67.3206 29.8081 63.6161 29.9069C58.9438 30.0315 54.4976 32.6815 51.3585 36.0088C50.1238 37.3174 49.0204 38.7904 48.1045 40.3386C46.3524 43.3002 45.158 46.8791 42.2401 48.9259C42.2034 48.1809 42.3639 47.4171 42.4814 46.6833C42.7349 45.1033 43.0902 43.5453 43.6258 42.0353C44.0381 40.8728 44.5999 39.7655 45.0869 38.6333L47.8323 33.4852C50.3464 29.6012 53.2355 26.1325 56.9733 23.3615L60.0937 21.2697L64.3989 18.9407L68.0574 17.5266C71.2876 16.3879 74.5176 15.6889 77.9166 15.3169Z" fill="#746E6C"/>
<path d="M54.7142 75.832L59.9509 77.7605L64.3443 79.3638C67.1962 80.3037 70.0957 80.8751 73.0668 81.2954C79.6664 82.2288 86.3044 82.1347 92.8988 81.2005C96.0749 80.7507 99.4009 80.1052 102.405 78.9685C103.691 81.6358 105.155 84.2885 105.945 87.161L106.028 87.1889C106.569 87.3244 107.363 87.2303 107.928 87.2337L112.857 87.2425L112.853 96.7967L112.854 99.4968C112.855 100.085 112.828 100.724 112.933 101.302L112.935 101.343L112.815 101.395C112.4 101.567 111.905 101.629 111.468 101.741C109.829 102.16 106.388 102.894 105.641 104.629C105.521 104.907 105.447 105.195 105.412 105.495C105.379 106.11 105.5 106.699 105.914 107.178C106.454 107.803 107.27 108.098 108.076 108.133L108.465 108.142L108.355 108.201C107.967 108.407 107.525 108.512 107.125 108.695C106.462 108.999 105.717 109.674 105.486 110.384C105.397 110.658 105.393 111.214 105.481 111.486C105.611 112.155 105.889 112.719 106.466 113.113C107.414 113.76 108.58 113.615 109.636 113.381L109.902 113.32C109.784 113.594 109.416 113.721 109.168 113.893C108.293 114.501 107.71 115.498 108.006 116.581C108.187 117.339 108.486 117.87 109.161 118.296C109.94 118.787 110.815 118.793 111.689 118.583C112.06 118.494 112.445 118.348 112.791 118.19C112.951 118.757 112.855 119.557 112.855 120.153L112.857 124.312L112.805 141.728L106.83 141.715L102.655 144.503C100.288 145.639 98.1021 147.236 96.4246 149.268C96.0198 149.758 95.555 150.32 95.2778 150.894C95.0675 151.12 94.9268 151.405 94.7738 151.671L70.901 151.67C70.5415 150.953 70.1875 150.147 69.6715 149.527C68.3802 147.337 65.9764 145.641 63.7671 144.457L63.6967 144.46C63.2708 144.464 62.9018 144.282 62.4954 144.182C61.7258 143.993 60.9408 143.822 60.1526 143.735C56.5861 143.339 52.3925 143.929 49.2464 145.698C48.2188 146.275 47.3011 147.016 46.4087 147.78L46.1936 147.541C45.4726 146.702 44.9251 145.689 44.4496 144.696C43.0536 141.783 42.1393 138.14 42.381 134.901L42.4821 133.812C42.8305 130.334 44.5083 127.791 47.1715 125.614L48.1555 125.767L46.8822 115.268C46.8703 115.23 46.8514 115.19 46.822 115.162C46.724 115.067 46.399 114.957 46.2584 114.889L44.5763 114.102L40.2511 111.982C39.4446 111.576 38.5984 111.207 37.8355 110.724C36.2596 109.724 35.0769 108.078 34.6917 106.246C34.3485 104.615 34.524 102.874 35.2292 101.358C35.7307 100.28 36.4592 99.2802 37.1079 98.2867L39.6764 94.3493C44.0869 87.6589 48.8627 81.3442 54.7142 75.832Z" fill="#A3C5C7"/>
<path d="M57.0243 114.206C57.62 114.674 58.1044 115.32 58.1928 116.094C58.2634 116.712 58.0121 117.358 57.6101 117.821C57.1438 118.358 56.3183 118.645 55.6229 118.668C54.3175 118.711 53.1477 118.246 52.0415 117.595L51.9163 117.427L51.9391 117.3C52.3329 117.193 52.9629 117.392 53.3752 117.439C54.2911 117.545 55.5064 117.629 56.399 117.382C56.9059 117.242 57.3912 116.955 57.6376 116.474C57.911 115.941 57.7079 115.366 57.4043 114.894C57.278 114.698 57.096 114.531 57.0372 114.3L57.0243 114.206Z" fill="#010101"/>
<path d="M88.3482 98.2853C89.1553 98.2525 90.4884 98.2192 91.1218 98.7789L90.8116 100.28C90.5681 100.297 90.2667 100.172 90.0234 100.119C89.5077 100.008 88.7249 99.9712 88.2105 100.103L88.1071 100.132L87.8322 100.21C87.0208 100.477 86.3626 101.073 85.9797 101.833C85.4828 102.819 85.4774 104.125 85.8112 105.158C86.0736 105.97 86.589 106.582 87.3491 106.971C88.5388 107.581 89.7595 107.374 90.9721 106.971L91.0083 107.863L91.1105 108.783L90.1054 109.053C88.5926 109.332 86.8688 109.168 85.5792 108.283C84.5036 107.546 83.7211 106.332 83.4846 105.051C83.1898 103.454 83.4238 101.792 84.3796 100.459C85.3562 99.096 86.7369 98.5395 88.3482 98.2853Z" fill="#010101"/>
<path d="M93.208 98.2922L95.2397 98.2951L95.2075 101.464C95.2013 101.99 95.1458 102.548 95.1926 103.07C96.0487 101.286 97.4305 99.8713 98.5359 98.2498L101.091 98.2517L96.8347 103.348L99.2171 106.7L100.844 109.008L98.4672 109.012L95.185 103.96C95.0807 104.239 95.1582 104.803 95.1585 105.11L95.162 108.953L93.1958 108.948L93.208 98.2922Z" fill="#010101"/>
<path d="M77.1276 98.0618C77.4737 98.2669 81.8212 107.603 82.6123 108.954L80.2637 108.93L79.0882 106.447L77.4732 106.491L75.0468 106.508C74.8506 106.772 74.741 107.15 74.6094 107.453L73.9176 108.933L71.7534 108.944L75.6564 100.923C76.1378 99.9784 76.5511 98.9504 77.1276 98.0618Z" fill="#010101"/>
<path d="M77.1119 102.487C77.5751 103.144 77.9081 103.91 78.2681 104.629L77.1804 104.634L75.9385 104.637L77.1119 102.487Z" fill="#A3C5C7"/>
<path d="M65.565 98.1313C66.308 98.1073 67.0952 98.1739 67.8284 98.2964C68.6365 98.4312 69.481 98.8683 69.9411 99.5645C70.3362 100.163 70.4553 100.924 70.3059 101.621C70.1549 102.325 69.7928 102.822 69.1896 103.199L69.0959 103.256C69.5598 103.461 69.9009 103.64 70.242 104.023C70.7478 104.591 70.9892 105.32 70.9223 106.077C70.8302 107.122 70.352 107.703 69.5806 108.349C68.9144 108.69 68.3396 108.86 67.5991 108.961C66.2477 109.146 64.7765 109.026 63.422 108.893L63.4197 98.2005L65.565 98.1313Z" fill="#010101"/>
<path d="M65.4718 99.9708C66.2166 99.9612 67.1235 99.848 67.7653 100.291C68.0552 100.492 68.2583 100.802 68.3067 101.153C68.3702 101.611 68.2249 101.88 67.9403 102.225C67.1203 102.711 66.3892 102.665 65.4731 102.672L65.4718 99.9708Z" fill="#A3C5C7"/>
<path d="M65.4824 104.258C66.3298 104.277 67.431 104.204 68.1813 104.644C68.4902 104.826 68.7596 105.113 68.8245 105.476C68.9211 106.016 68.7004 106.356 68.3836 106.764L67.9328 107.014C67.3171 107.28 66.2204 107.367 65.6039 107.107C65.4482 106.844 65.4894 106.568 65.4876 106.274L65.4824 104.258Z" fill="#A3C5C7"/>
<path d="M61.4601 118.088L103.736 118.059L103.738 121.087L61.4521 121.095L61.4601 118.088Z" fill="#869694"/>
<path d="M61.403 124.016L103.732 124.01L103.728 127.118L61.4033 127.175L61.403 124.016Z" fill="#869694"/>
<path d="M68.093 129.938L103.735 129.972L103.738 133.089L97.1585 133.084L61.4438 133.077L61.4541 129.965L68.093 129.938Z" fill="#869694"/>
<path d="M64.3442 79.3638C67.1961 80.3037 70.0956 80.8751 73.0667 81.2954C79.6663 82.2288 86.3044 82.1347 92.8988 81.2005C96.0749 80.7507 99.4008 80.1052 102.405 78.9685C103.691 81.6358 105.155 84.2885 105.945 87.161C105.457 87.0435 104.884 87.062 104.381 87.0509L101.579 87.0279L92.568 87.0217L59.6036 86.9287C60.3075 84.9122 61.4685 83.0347 62.7835 81.3589C63.259 80.7527 64.0097 80.0441 64.3442 79.3638Z" fill="#D6CAC3"/>
<path d="M69.1098 141.639L97.3997 141.638L106.83 141.715L102.655 144.503C100.288 145.639 98.1021 147.236 96.4246 149.268C96.0198 149.758 95.555 150.32 95.2777 150.894C95.0675 151.12 94.9268 151.405 94.7738 151.671L70.901 151.67C70.5415 150.953 70.1875 150.147 69.6715 149.527C68.3801 147.337 65.9764 145.641 63.7671 144.458C62.3907 143.482 60.7621 142.724 59.4618 141.656L69.1098 141.639Z" fill="#746E6C"/>
<path d="M69.1098 141.639L97.3997 141.638C93.7328 144.812 89.4831 147.173 84.5398 147.425C80.2086 147.645 75.8312 146.486 72.1951 144.119C71.0766 143.391 70.0882 142.54 69.1098 141.639Z" fill="#AAB5B2"/>
<path d="M54.7142 75.832L59.9509 77.7605L64.3443 79.3638C64.0098 80.0441 63.2591 80.7527 62.7835 81.3589C61.4686 83.0347 60.3076 84.9122 59.6037 86.9287L52.053 86.8589V100.804L52.0267 100.978C52.6398 101.081 53.2412 101.362 53.82 101.583L57.0666 102.856C57.8404 103.16 58.969 103.431 59.6264 103.932C60.2567 104.329 60.6895 104.858 60.8484 105.598C60.9529 106.086 60.9046 106.505 60.63 106.931C60.2979 107.446 59.7048 107.801 59.1091 107.914C58.619 108.006 58.1105 107.945 57.623 107.87C57.8342 108.164 58.3378 108.332 58.6539 108.506C59.1645 108.788 59.6666 109.142 60.0259 109.606C60.4767 110.187 60.7358 110.824 60.6593 111.575C60.6008 112.15 60.3532 112.615 59.9023 112.978C59.0451 113.668 58.0428 113.714 56.9986 113.584L56.1424 113.445L56.0778 113.496L56.1203 113.585C56.4326 113.775 56.7601 113.95 57.0243 114.206L57.0372 114.3C57.0961 114.531 57.2781 114.698 57.4043 114.894C57.708 115.366 57.911 115.941 57.6377 116.474C57.3913 116.955 56.9059 117.242 56.3991 117.382C55.5065 117.629 54.2912 117.545 53.3753 117.439C52.963 117.392 52.333 117.193 51.9391 117.3L51.9163 117.426L52.0416 117.595C51.8527 118.268 52.006 119.315 52.0148 120.036L52.0264 124.37L51.9944 135.682L51.9873 141.644L59.4618 141.655C60.7621 142.724 62.3907 143.482 63.7671 144.457L63.6967 144.46C63.2708 144.464 62.9018 144.282 62.4954 144.182C61.7258 143.993 60.9408 143.822 60.1526 143.735C56.5861 143.339 52.3925 143.929 49.2464 145.698C48.2188 146.275 47.3011 147.016 46.4087 147.78L46.1936 147.541C45.4726 146.702 44.9251 145.689 44.4496 144.696C43.0536 141.783 42.1393 138.14 42.381 134.901L42.4821 133.812C42.8305 130.334 44.5083 127.791 47.1715 125.614L48.1555 125.767L46.8822 115.268C46.8703 115.23 46.8513 115.19 46.822 115.162C46.724 115.067 46.399 114.957 46.2584 114.889L44.5763 114.102L40.2511 111.982C39.4446 111.576 38.5984 111.207 37.8355 110.724C36.2596 109.724 35.0769 108.078 34.6917 106.246C34.3485 104.615 34.524 102.874 35.2292 101.358C35.7307 100.28 36.4592 99.2802 37.1079 98.2867L39.6764 94.3493C44.0869 87.6589 48.8627 81.3442 54.7142 75.832Z" fill="#302723"/>
<path d="M52.0267 100.978C51.5537 100.986 51.0084 100.736 50.5583 100.583C48.8552 100.005 47.1349 99.5254 45.3813 99.1268C44.6903 98.9697 43.8171 98.9691 43.177 98.7215C43.7184 98.6109 44.3783 98.7251 44.9277 98.7907C47.3337 99.0775 49.9063 99.6632 52.053 100.804L52.0267 100.978Z" fill="#010101"/>
<path d="M59.6263 103.932C60.2567 104.329 60.6895 104.858 60.8483 105.598C60.9529 106.086 60.9046 106.505 60.63 106.931C60.2979 107.446 59.7048 107.801 59.109 107.914C58.619 108.007 58.1104 107.945 57.623 107.87L57.5224 107.82C56.5717 107.567 55.5596 107.016 54.6974 106.517C55.9853 106.7 57.7398 107.184 58.9989 106.839C59.5216 106.696 60.0482 106.442 60.3348 105.965C60.3875 105.111 60.1386 104.711 59.5916 104.09L59.6263 103.932Z" fill="#010101"/>
<path d="M60.0259 109.605C60.4766 110.187 60.7358 110.824 60.6593 111.575C60.6007 112.15 60.3532 112.615 59.9022 112.978C59.0451 113.668 58.0427 113.714 56.9985 113.584L56.1423 113.445L56.0777 113.496L56.1203 113.585L55.8977 113.669L52.0291 111.921C54.0134 112.284 56.5937 112.96 58.5886 112.519C59.1201 112.401 59.6751 112.157 59.9706 111.674C60.2217 111.264 60.2297 110.681 60.1152 110.222C60.0759 110.065 60.0438 109.93 60.034 109.767L60.0259 109.605Z" fill="#010101"/>
<defs>
<linearGradient id="paint0_linear_2097_221" x1="84.1154" y1="29.704" x2="83.7015" y2="81.9004" gradientUnits="userSpaceOnUse">
<stop stop-color="#D9CEC6"/>
<stop offset="1" stop-color="white"/>
</linearGradient>
</defs>
</svg>
