<?xml version="1.0" encoding="utf-8" ?>
<svg xmlns="http://www.w3.org/2000/svg" xmlns:xlink="http://www.w3.org/1999/xlink" width="1024" height="1024">
	<path fill="white" d="M0 -0L1024 0L1024 1024L-0 1024L0 -0Z"/>
	<path fill="#D8D7D6" d="M683.603 356.764C697.952 354.837 711.475 354.935 725.77 357.359L723.787 357.775C720.802 358.296 717.488 358.072 714.449 358.076L698.595 358.027C694.604 357.997 689.344 358.527 685.5 357.745C684.742 357.591 684.219 357.199 683.603 356.764Z"/>
	<path fill="#B9B7B6" d="M188.817 235.13C196.615 242.893 204.171 250.817 210.924 259.52C212.612 261.695 214.84 264.038 216.04 266.473L202.715 266.213C203.989 265.921 205.243 266.05 206.464 265.5C205.712 263.29 204.058 261.246 202.908 259.194L195.902 246.665C193.599 242.958 190.956 239.492 189.022 235.557L188.817 235.13Z"/>
	<path fill="#D8D7D6" d="M154.859 220.072C160.897 219.415 166.915 219.617 172.942 220.346C176.538 222.793 179.663 226.134 182.783 229.16C184.734 231.05 187.146 233.017 188.817 235.13L189.022 235.557C190.956 239.492 193.599 242.958 195.902 246.665L202.908 259.194C204.058 261.246 205.712 263.29 206.464 265.5C205.243 266.05 203.989 265.921 202.715 266.213L191.3 267.171C190.979 264.344 188.332 261.175 186.858 258.742C181.745 250.302 176.521 241.818 169.759 234.568L154.859 220.072Z"/>
	<path fill="#B9B7B6" d="M139.414 221.407L154.859 220.072L169.759 234.568C176.521 241.818 181.745 250.302 186.858 258.742C188.332 261.175 190.979 264.344 191.3 267.171L191.091 267.362L175.756 269.209L173.686 269.307C166.884 257.277 157.639 245.6 149.25 234.578C146.085 230.42 141.796 226.005 139.414 221.407Z"/>
	<path fill="#B9B7B6" d="M624.864 447.539C628.308 448.785 633.416 449.909 636.403 451.89C638.506 453.285 640.366 455.551 642.25 457.255C644.845 459.603 647.74 461.76 650.5 463.917C662.196 473.057 673.474 480.96 687.04 487.189C693.231 490.033 700.101 492.81 707 492.889C717.384 493.008 728.888 488.601 738.142 484.248C746.521 480.305 754.733 475.34 761.601 469.086C764.428 466.511 767.203 463.681 769.686 460.773C772.108 457.936 775.445 451.054 778.588 449.63C774.391 466.368 763.589 479.079 748.948 487.924C744.146 490.825 738.89 493.365 733.561 495.138L725.349 497.504C724.015 497.837 721.814 498.104 720.663 498.84C716.595 499.198 712.581 500.13 708.5 500.377C688.78 501.571 669.397 496.635 652.75 486.07C638.298 476.897 628.562 464.239 624.864 447.539Z"/>
	<path fill="#B9B7B6" d="M731.026 345.626C730.975 344.442 731.026 343.073 730.607 341.958C729.289 338.455 729.969 333.679 730.411 330C731.595 320.153 733.06 309.724 736.051 300.234C739.927 287.941 744.744 276.704 752.457 266.267C764.132 250.472 779.906 239.17 799.5 235.866C803.96 235.114 809.505 234.963 813.981 235.712C843.464 240.646 863.84 263.626 881.444 286.034C885.426 291.103 888.927 296.569 893.089 301.5C897.565 306.803 902.807 311.437 908.149 315.845C909.783 317.193 910.732 317.839 911.341 319.924L910.799 319.607C896.312 310.936 885.497 296.715 874.143 284.514C852.966 261.76 825.734 243.537 793.25 251.689C774.371 256.427 758.284 269.971 748.535 286.613C740.364 300.559 735.777 316.337 732.975 332.156C732.189 336.594 731.983 341.25 731.026 345.626Z"/>
	<path fill="#A4A19E" d="M61.2112 253.034C63.7157 252.508 66.2103 250.409 68.3162 248.999L80.4191 241.269C84.885 238.7 89.5012 236.533 94.2086 234.45C87.6936 255.485 86.4739 278.455 84.198 300.255L83.858 300.694C71.4355 307.287 59.8108 314.716 48.3879 322.905C44.0789 325.994 39.5461 328.921 35.7021 332.589C36.4684 324.315 39.5609 315.433 41.9904 307.494L61.2112 253.034Z"/>
	<path fill="#192226" d="M61.2112 253.034C65.5918 241.301 71.1173 229.825 76.8383 218.695C83.5738 205.59 90.8632 192.601 99.741 180.825C103.893 180.963 108.635 183.007 112.5 184.477C134.46 192.83 154.636 205.731 172.942 220.346C166.915 219.617 160.897 219.415 154.859 220.072L139.414 221.407C124.02 223.875 108.367 227.791 94.2086 234.45C89.5012 236.533 84.885 238.7 80.4191 241.269L68.3162 248.999C66.2103 250.409 63.7157 252.508 61.2112 253.034Z"/>
	<path fill="#080E11" d="M202.715 266.213L216.04 266.473C219.713 269.247 222.794 274.104 225.548 277.827C232.059 286.628 238.457 295.736 243.537 305.453C249.421 316.708 253.791 328.575 258.734 340.241C251.235 338.25 242.716 337.876 234.99 337.388L234.312 337.022L221.289 337.464L220.536 337.363L203.541 338.472C203.587 334.644 201.556 329.69 200.359 326.055C195.573 311.528 189.686 297.552 183.017 283.798C180.722 279.066 177.332 274.159 175.756 269.209L191.091 267.362L191.3 267.171L202.715 266.213Z"/>
	<path fill="#192226" d="M191.3 267.171L202.715 266.213L234.312 337.022L221.289 337.464L220.536 337.363L221.07 336.25C214.835 318.302 206.876 300.756 198.906 283.523C196.534 278.394 194.28 271.954 191.091 267.362L191.3 267.171Z"/>
	<path fill="#080E11" d="M175.756 269.209L191.091 267.362C194.28 271.954 196.534 278.394 198.906 283.523C206.876 300.756 214.835 318.302 221.07 336.25L220.536 337.363L203.541 338.472C203.587 334.644 201.556 329.69 200.359 326.055C195.573 311.528 189.686 297.552 183.017 283.798C180.722 279.066 177.332 274.159 175.756 269.209Z"/>
	<path fill="#B9B7B6" d="M234.312 337.022L234.99 337.388C242.716 337.876 251.235 338.25 258.734 340.241L277.922 403.956C270.609 401.008 261.137 400.695 253.338 400.467L239.042 400.486L219.463 402.101L219.118 402.006C216.015 383.397 211.59 365.045 205.812 347.086C205.109 344.9 204.244 340.097 202.535 338.803L203.541 338.472L220.536 337.363L221.289 337.464L234.312 337.022Z"/>
	<path fill="#D8D7D6" d="M234.312 337.022L234.99 337.388C237.368 341.824 238.754 346.898 240.401 351.655C245.858 367.409 250.463 383.507 253.327 399.953L239.067 400.155C239.179 390.968 236.97 381.71 234.399 372.942C230.803 360.679 226.341 349.205 221.289 337.464L234.312 337.022Z"/>
	<path fill="#080E11" d="M697.049 390.173C708.972 389.102 721.127 390.855 731.197 397.752C736.01 401.048 740.516 405.7 741.577 411.616C742.922 419.118 740.368 426.853 736.096 433.006C728.269 444.279 718.171 448.346 705.091 450.681C705.518 453.319 706.135 456.117 707.195 458.577C709.112 463.024 712.365 466.106 716.911 467.794C726.976 471.531 740.146 466.381 748.795 461.177C751.322 459.656 753.699 457.211 756.338 456.062C753.996 460.433 745.397 464.916 741.107 467.05C731.633 471.764 722.167 473.197 711.995 469.727C709.009 468.363 706.854 466.577 704.451 464.399C699.85 467.972 695.879 470.511 689.99 471.522C676.421 473.85 665.207 468.126 654.563 460.377L654.75 459.947C661.82 464.295 669.315 468.553 677.75 469.377C684.461 470.032 691.474 469.08 696.747 464.515C701.407 460.48 701.795 456.19 702.2 450.449C694.837 449.246 687.624 447.587 681.279 443.48C673.533 438.467 667.012 429.946 665.183 420.79C663.954 414.642 664.81 409.245 668.489 404.048C674.634 395.368 687.109 391.728 697.049 390.173Z"/>
	<path fill="#192226" d="M675.6 406.723C677.989 406.894 680.237 406.86 682.614 406.551C688.127 405.833 694.013 405.821 699.575 405.847C702.322 405.86 706.15 406.44 708.755 405.75L709.119 406.034C710.637 406.901 714.081 406.561 715.875 406.665C720.658 406.943 725.325 407.856 730.139 407.881L729.086 409.703C726.868 413.03 722.17 414.659 718.467 415.439L717.5 415.634L713 416.345C704.701 417.036 683.62 417.442 677.5 411.718C675.73 410.062 675.57 408.971 675.6 406.723Z"/>
	<defs>
		<linearGradient id="gradient_0" gradientUnits="userSpaceOnUse" x1="705.00159" y1="406.98404" x2="704.25342" y2="395.13666">
			<stop offset="0" stop-color="#363D40"/>
			<stop offset="1" stop-color="#6A6C6D"/>
		</linearGradient>
	</defs>
	<path fill="url(#gradient_0)" d="M675.6 406.723C678.732 401.283 683.832 398.287 689.781 396.64C700.43 393.693 714.66 394.076 724.463 399.654C726.583 400.86 729.135 402.676 729.838 405.155C730.086 406.03 730.105 406.978 730.139 407.881C725.325 407.856 720.658 406.943 715.875 406.665C714.081 406.561 710.637 406.901 709.119 406.034L708.755 405.75C706.15 406.44 702.322 405.86 699.575 405.847C694.013 405.821 688.127 405.833 682.614 406.551C680.237 406.86 677.989 406.894 675.6 406.723Z"/>
	<path fill="#D8D7D6" d="M94.2086 234.45C108.367 227.791 124.02 223.875 139.414 221.407C141.796 226.005 146.085 230.42 149.25 234.578C157.639 245.6 166.884 257.277 173.686 269.307C152.985 273.012 133.17 278.696 113.68 286.646L84.198 300.255C86.4739 278.455 87.6936 255.485 94.2086 234.45Z"/>
	<path fill="#080E11" d="M239.042 400.486L253.338 400.467C261.137 400.695 270.609 401.008 277.922 403.956L289.21 470.414L256.523 470.71L240.523 472.469L230.636 473.912L221.902 475.823C220.304 474.485 221.726 463.586 221.827 460.724C222.519 441.141 222.193 421.525 219.463 402.101L239.042 400.486Z"/>
	<path fill="#192226" d="M239.042 400.486L253.338 400.467C255.087 416.958 256.627 433.12 256.938 449.729L256.523 470.71L240.523 472.469L239.042 400.486Z"/>
	<path fill="#080E11" d="M253.338 400.467C261.137 400.695 270.609 401.008 277.922 403.956L289.21 470.414L256.523 470.71L256.938 449.729C256.627 433.12 255.087 416.958 253.338 400.467Z"/>
	<path fill="#080E11" d="M83.858 300.694C84.6723 305.948 83.9522 312.086 83.95 317.428C83.9437 332.778 84.294 347.962 85.808 363.25C86.2304 367.515 86.2386 372.768 87.7134 376.76C65.5858 390.519 46.2669 406.058 27.5526 424.101L27.4282 403.234C27.8863 379.944 29.9266 355.194 35.7021 332.589C39.5461 328.921 44.0789 325.994 48.3879 322.905C59.8108 314.716 71.4355 307.287 83.858 300.694Z"/>
	<path fill="#080E11" d="M500.945 316.16L500.977 316.823C501.013 318.804 499.502 321.44 498.909 323.391C497.737 327.248 496.739 331.286 496.004 335.25C491.061 361.918 495.938 392.298 515.196 412.526L522.25 419.528L521.97 420.197L500.531 412.708L457.477 389.359C436.559 374.701 415.77 360.239 397.994 341.7L415.949 341.019C418.383 339.136 424.544 339.401 427.68 338.96C431.09 338.479 434.164 337.804 437.366 336.488C441.67 338.176 446.651 336.623 451.002 335.618C456.545 334.339 462.397 333.173 467.75 331.255C469.091 330.775 470.493 330.501 471.783 329.905C473.584 329.072 476.838 327.616 478.75 327.255C479.176 327.175 480.538 327.644 481.032 327.752C488.323 325.366 494.772 320.57 500.945 316.16Z"/>
	<path fill="#B9B7B6" d="M437.366 336.488C441.67 338.176 446.651 336.623 451.002 335.618C456.545 334.339 462.397 333.173 467.75 331.255C469.091 330.775 470.493 330.501 471.783 329.905C473.584 329.072 476.838 327.616 478.75 327.255C479.176 327.175 480.538 327.644 481.032 327.752C467.01 334.575 450.737 338.492 435.283 340.21C428.929 340.916 422.331 341.502 415.949 341.019C418.383 339.136 424.544 339.401 427.68 338.96C431.09 338.479 434.164 337.804 437.366 336.488Z"/>
	<path fill="#A4A19E" d="M88.3244 376.596L93.2564 401.863C95.4472 413.155 97.3557 424.453 100.652 435.497C101.611 438.711 102.442 442.372 103.958 445.358L103.295 445.982C78.1894 462.206 57.1781 481.804 38.3733 504.959L27.3372 425.369C26.7353 421.72 26.9351 418.023 26.9496 414.329C26.9642 410.62 26.8521 406.909 27.4282 403.234L27.5526 424.101C46.2669 406.058 65.5858 390.519 87.7134 376.76L88.3244 376.596Z"/>
	<path fill="#080E11" d="M306.277 799.52C306.714 799.655 307.221 799.654 307.589 799.927C309.317 801.204 311.324 805.204 312.486 807.066C315.199 811.416 317.99 815.812 321.163 819.845C335.783 838.427 363.478 863.004 388.803 849.751C391.233 848.48 393.733 846.881 395.802 845.079L400.23 841.963L389.563 888.943C394.31 890.072 399.188 891.058 403.747 892.821C415.046 897.191 427.407 906.36 433.856 916.75C435.831 919.931 438.444 924.75 437.455 928.568C437.13 929.82 435.723 931.347 434.791 932.195C431.909 934.241 428.911 936.046 425.564 937.236L412.609 940.849L406.474 941.484C391.689 943.503 374.127 941.278 360.73 934.595C354.073 931.274 348.273 926.311 344.735 919.671C340.875 912.428 339.437 903.991 337.196 896.156L326.152 858.348L306.277 799.52Z"/>
	<path fill="#424545" d="M406.474 941.484C395.625 927.038 380.882 916.242 368.32 903.469L369.266 903.553C381.829 904.706 394.608 913.451 402.5 923.066C407.247 928.848 409.477 934.237 412.609 940.849L406.474 941.484Z"/>
	<path fill="#424545" d="M425.564 937.236C423.514 932.365 419.84 927.75 416.417 923.749C407.01 912.753 395.286 903.931 384.449 894.419C392.652 896.111 401.858 899.632 408.922 904.159L409.5 904.535C415.433 908.318 420.8 912.906 425.285 918.348C428.937 922.779 431.415 927.641 434.791 932.195C431.909 934.241 428.911 936.046 425.564 937.236Z"/>
	<path fill="#080E11" d="M103.295 445.982C104.791 448.099 105.188 450.646 106.001 453.083L110.861 467.185L120.644 489.756L127.019 502.008L133.786 512.789C134.909 514.473 136.69 516.517 137.147 518.487C111.317 539.749 89.4371 565.127 72.7149 594.157C57.3209 566.603 46.038 535.542 38.3733 504.959C57.1781 481.804 78.1894 462.206 103.295 445.982Z"/>
	<path fill="#080E11" d="M745.037 843.017C751.867 842.764 758.678 841.98 765.378 840.634C768.331 840.041 771.367 839.357 774.25 838.47C776.708 837.714 778.724 836.748 781.372 836.914L767.65 890.863C782.217 889.088 796.531 893.186 808.063 902.233C816.615 908.944 827.625 922.684 828.762 933.937C828.943 935.732 828.894 937.116 827.705 938.542C826.83 939.59 825.823 940.315 824.655 940.992L814.456 944.217L809.107 945.153L797.028 946.479L795.529 946.551C774.956 947.466 751.733 944.875 735.916 930.225C731.294 925.944 727.579 921.518 725.183 915.646C721.866 907.517 721.373 898.308 720.216 889.695C718.038 873.488 715.984 857.212 715.307 840.862L716 839.855C719.93 840.148 723.631 841.288 727.5 841.905C733.258 842.823 739.217 843.026 745.037 843.017Z"/>
	<path fill="#192226" d="M797.028 946.479C797.08 945.335 796.921 944.834 796.25 943.889C794.166 940.955 791.005 938.581 788.421 936.093C782.994 930.869 777.551 925.644 772.98 919.636C768.421 913.643 764.309 906.377 762.106 899.182L770.826 906.874C779.318 913.74 788.06 919.621 795.1 928.166C799.198 933.138 803.095 938.2 805.418 944.273L805.597 944.75C806.819 945.166 807.833 945.129 809.107 945.153L797.028 946.479Z"/>
	<path fill="#192226" d="M814.456 944.217L813.556 941C812.174 937.529 809.925 934.134 807.897 931C798.827 916.99 786.351 905.956 771.25 898.884L771.62 898.174C772.533 898.069 773.331 898.001 774.25 898.059C776.919 898.227 779.816 899.078 782.406 899.719C785.891 900.581 789.757 901.522 793 903.067C800.107 906.452 807.236 913.073 812.154 919.202C815.711 923.633 819.188 928.15 821.542 933.361C822.625 935.758 823.146 938.305 824.429 940.599L824.655 940.992L814.456 944.217Z"/>
	<path fill="#A4A19E" d="M137.147 518.487L137.38 518.516C138.523 521.465 141.584 524.395 143.618 526.842C153.558 538.798 164.061 549.75 176.103 559.622C179.163 562.131 182.465 565.169 186 566.984C186.616 567.3 187.232 567.454 187.899 567.621L187.75 567.942C182.699 571.552 178.132 576.622 173.797 581.052C151.659 603.679 132.884 629.991 119.751 658.859C114.376 653.977 109.545 647.878 104.956 642.25C96.5102 631.894 88.8881 621.29 81.8607 609.926C78.6956 604.808 75.3351 599.579 72.7149 594.157C89.4371 565.127 111.317 539.749 137.147 518.487Z"/>
	<path fill="#192226" d="M173.686 269.307L175.756 269.209C177.332 274.159 180.722 279.066 183.017 283.798C189.686 297.552 195.573 311.528 200.359 326.055C201.556 329.69 203.587 334.644 203.541 338.472L202.535 338.803C175.731 342.034 150.207 348.034 125.157 358.301C112.431 363.516 100.332 369.923 88.3244 376.596L87.7134 376.76C86.2386 372.768 86.2304 367.515 85.808 363.25C84.294 347.962 83.9437 332.778 83.95 317.428C83.9522 312.086 84.6723 305.948 83.858 300.694L84.198 300.255L113.68 286.646C133.17 278.696 152.985 273.012 173.686 269.307Z"/>
	<path fill="#080E11" d="M441.094 792.015C443.309 791.36 445.207 792.468 447.377 793.175L463.086 798.53C480.108 804.228 497.556 808.328 515.084 812.1L526.468 814.163C528.33 814.418 531.289 814.349 532.903 815.045C534.76 815.846 538.331 824.867 539.276 827.038C541.068 830.418 543.075 833.81 544.223 837.47C546.924 847.671 550.852 857.657 554.314 867.626C555.859 872.076 557.789 876.704 558.618 881.342C561.513 888.23 563.434 898.408 563.792 905.862L561.022 907.189C557.426 908.876 553.907 909.717 550.045 910.483C542.609 911.605 534.969 912.118 527.474 911.216C520.602 910.388 513.989 909.377 507.359 907.305C498.964 904.682 489.522 898.987 484.358 891.733C479.254 884.562 476.953 874.233 474.089 865.921L466.5 845.902C458.938 827.464 450.353 809.661 441.094 792.015Z"/>
	<path fill="#192226" d="M550.045 910.483C548.552 907.041 546.181 903.856 544.083 900.761C537.721 891.375 530.302 882.822 522.779 874.359L527.5 875.951C541.848 881.07 554.529 893.65 561.022 907.189C557.426 908.876 553.907 909.717 550.045 910.483Z"/>
	<path fill="white" d="M539.276 827.038C541.068 830.418 543.075 833.81 544.223 837.47C546.924 847.671 550.852 857.657 554.314 867.626C555.859 872.076 557.789 876.704 558.618 881.342C551.09 873.927 542.028 868.264 531.775 865.572L539.276 827.038Z"/>
	<path fill="#D8D7D6" d="M88.3244 376.596C100.332 369.923 112.431 363.516 125.157 358.301C150.207 348.034 175.731 342.034 202.535 338.803C204.244 340.097 205.109 344.9 205.812 347.086C211.59 365.045 216.015 383.397 219.118 402.006C188.212 406.308 156.876 416.701 129.194 430.956L103.958 445.358C102.442 442.372 101.611 438.711 100.652 435.497C97.3557 424.453 95.4472 413.155 93.2564 401.863L88.3244 376.596Z"/>
	<path fill="#192226" d="M219.118 402.006L219.463 402.101C222.193 421.525 222.519 441.141 221.827 460.724C221.726 463.586 220.304 474.485 221.902 475.823C198.132 481.507 175.304 491.797 155.039 505.402C149.062 509.415 142.789 513.752 137.38 518.516L137.147 518.487C136.69 516.517 134.909 514.473 133.786 512.789L127.019 502.008L120.644 489.756L110.861 467.185L106.001 453.083C105.188 450.646 104.791 448.099 103.295 445.982L103.958 445.358L129.194 430.956C156.876 416.701 188.212 406.308 219.118 402.006Z"/>
	<path fill="#192226" d="M544.223 837.47L545.277 837.25L555.506 846.402L556.16 846.925C561.603 851.234 569.607 854.877 576.369 856.426C587.438 860.621 602.791 860.362 614 857.009C617.579 855.938 620.8 854.266 624.25 852.887L624.777 853.864C621.754 871.977 618.195 891.458 619.733 909.869C619.995 913.002 620.16 916.837 621.366 919.75C623.353 921.82 625.904 922.48 628.5 923.531C631.748 924.845 635.068 926.16 638.164 927.809C650.273 934.259 662.057 944.034 668.872 956.102C670.384 958.779 672.174 962.056 671.998 965.213C671.896 967.049 670.987 968.933 669.508 970.067L666.167 971.966C663.135 973.342 659.798 974.236 656.559 974.996L643.399 976.742L634.888 977.122C618.882 976.948 599.958 974.768 585.972 966.343C564.409 953.355 569.183 927.167 563.915 906.325L563.792 905.862C563.434 898.408 561.513 888.23 558.618 881.342C557.789 876.704 555.859 872.076 554.314 867.626C550.852 857.657 546.924 847.671 544.223 837.47Z"/>
	<path fill="#424545" d="M656.559 974.996C655.996 971.426 654.002 968.517 652.214 965.449C644.722 952.594 634.949 940.509 623.299 931.15L622.716 930.687C631.893 933.031 639.058 938.17 646.312 944.058C651.819 948.528 664.818 962.189 665.443 969.258C665.519 970.116 665.55 970.482 665.861 971.244L666.167 971.966C663.135 973.342 659.798 974.236 656.559 974.996Z"/>
	<path fill="#424545" d="M634.888 977.122C633.518 972.701 630.902 968.801 628.42 964.931C620.602 952.739 610.379 942.722 602.019 931.048C602.84 931.235 603.587 931.458 604.367 931.781C621.489 938.888 633.557 952.821 640.977 969.616C641.891 971.686 642.191 973.854 643.029 975.871L643.399 976.742L634.888 977.122Z"/>
	<path fill="#D8D7D6" d="M256.523 470.71L289.21 470.414C291.497 483.515 296.987 498.699 305.217 509.305C307.107 511.741 309.566 513.731 311.627 516.029L280.613 520.292L254.465 528.113C229.708 537.857 208.681 551.218 187.899 567.621C187.232 567.454 186.616 567.3 186 566.984C182.465 565.169 179.163 562.131 176.103 559.622C164.061 549.75 153.558 538.798 143.618 526.842C141.584 524.395 138.523 521.465 137.38 518.516C142.789 513.752 149.062 509.415 155.039 505.402C175.304 491.797 198.132 481.507 221.902 475.823L230.636 473.912L240.523 472.469L256.523 470.71Z"/>
	<path fill="#B9B7B6" d="M256.523 470.71L289.21 470.414C291.497 483.515 296.987 498.699 305.217 509.305C307.107 511.741 309.566 513.731 311.627 516.029L280.613 520.292C278.786 517.166 276.076 514.247 273.764 511.458C265.816 501.869 256.653 493.33 246.718 485.814C241.672 481.997 236.161 478.635 231.349 474.53L230.636 473.912L240.523 472.469L256.523 470.71Z"/>
	<path fill="#192226" d="M846.184 624.983L841.588 641.439L781.372 836.914C778.724 836.748 776.708 837.714 774.25 838.47C771.367 839.357 768.331 840.041 765.378 840.634C758.678 841.98 751.867 842.764 745.037 843.017C739.217 843.026 733.258 842.823 727.5 841.905C723.631 841.288 719.93 840.148 716 839.855L715.307 840.862L708.891 772.45C719.566 765.543 730.126 758.802 740.195 750.995C769.775 728.057 794.814 698.803 816.525 668.5L835.659 640.045C838.679 635.468 841.839 628.131 846.184 624.983Z"/>
	<path fill="#424545" d="M745.037 843.017C746.73 831.716 750.19 820.548 754.07 809.814C757.565 800.148 761.872 790.738 766.017 781.339C777.881 754.437 791.435 728.372 805.671 702.662L821.228 675.414L833.952 651.273C836.029 647.638 837.622 643.285 841.588 641.439L781.372 836.914C778.724 836.748 776.708 837.714 774.25 838.47C771.367 839.357 768.331 840.041 765.378 840.634C758.678 841.98 751.867 842.764 745.037 843.017Z"/>
	<path fill="#080E11" d="M187.899 567.621C208.681 551.218 229.708 537.857 254.465 528.113C256.187 530.474 258.565 532.081 260.722 534.022C263.968 536.945 267.123 540.186 269.906 543.552C274.142 548.673 278.102 554.122 281.845 559.612C283.782 562.452 285.578 565.749 287.837 568.321C277.586 576.142 268.685 584.684 260.019 594.213C248.058 608.958 238.793 624.731 230.313 641.666C224.077 654.122 218.185 667.348 214.074 680.666C210.491 692.274 208.263 703.993 205.355 715.741C184.133 706.483 163.58 695.434 145.107 681.371C136.104 674.518 127.793 666.802 119.751 658.859C132.884 629.991 151.659 603.679 173.797 581.052C178.132 576.622 182.699 571.552 187.75 567.942L187.899 567.621Z"/>
	<path fill="#192226" d="M187.899 567.621C208.681 551.218 229.708 537.857 254.465 528.113C256.187 530.474 258.565 532.081 260.722 534.022C263.968 536.945 267.123 540.186 269.906 543.552C274.142 548.673 278.102 554.122 281.845 559.612C283.782 562.452 285.578 565.749 287.837 568.321C277.586 576.142 268.685 584.684 260.019 594.213C239.356 593.395 219.391 586.256 201.235 576.643C196.625 574.203 191.488 571.635 187.75 567.942L187.899 567.621Z"/>
	<path fill="#5D5E5F" d="M952.685 391.478L971 392.621L971.25 393.376L969.971 394.748C957.888 406.224 945.649 417.363 932.25 427.314C914.409 440.564 894.586 451.834 874.281 460.807L852.363 469.309C854.729 483.786 855.604 498.553 856.115 513.198C857.111 541.722 855.676 569.594 851.441 597.841C850.093 606.835 848.85 616.272 846.184 624.983C841.839 628.131 838.679 635.468 835.659 640.045L816.525 668.5C794.814 698.803 769.775 728.057 740.195 750.995C730.126 758.802 719.566 765.543 708.891 772.45C693.115 781.494 676.336 788.608 658.973 793.974L658.441 769.337L659.926 702.856L661.801 677.078C661.992 674.558 663.1 670.105 661.838 667.903L662.627 666.48C675.202 679.102 688.608 692.013 705.28 698.987C710.079 697.18 714.705 694.71 719.156 692.177C729.943 686.039 739.619 678.004 748.441 669.324C761.631 656.345 772.688 642.032 780.273 625.065C783.227 618.457 785.188 611.523 787.083 604.557C789.773 613.089 790.862 623.467 791.694 632.393L792.025 632.098C794.304 629.345 796.124 624.417 797.681 621.148C809.327 596.7 812.771 570.42 811.443 543.602C813.779 546.342 815.295 550.079 817.219 553.155L828.201 569.813L828.46 569.161C829.777 564.883 829.636 558.815 829.746 554.299C830.36 529.034 824.542 505.872 812.036 483.875L803.339 486.621L779 493.011C765.407 495.982 751.527 497.74 737.775 499.815L726.882 501.156C725.374 501.335 723.551 501.811 722.117 501.242C720.654 501.077 718.683 500.611 717.25 501C715.18 501.562 713.654 501.107 711.632 501.306L709.631 501.427C712.301 500.712 718.063 500.847 720.019 499.371L720.663 498.84C721.814 498.104 724.015 497.837 725.349 497.504L733.561 495.138C738.89 493.365 744.146 490.825 748.948 487.924C763.589 479.079 774.391 466.368 778.588 449.63L778.678 449.119C788.844 448.14 798.987 445.973 809 444.003C834.104 439.064 859.471 432.677 883.5 423.834L883.371 423.343C886.618 421.714 890.804 420.932 894.297 419.77C900.772 417.614 907.072 415.087 913.233 412.153L928.577 404.022L938.8 397.673C940.587 396.526 942.713 394.737 944.841 394.481L945.205 394.085C947.878 391.393 949.03 391.564 952.685 391.478Z"/>
	<path fill="#080E11" d="M952.685 391.478L971 392.621L971.25 393.376L969.971 394.748L944.841 394.481L945.205 394.085C947.878 391.393 949.03 391.564 952.685 391.478Z"/>
	<path fill="#192226" d="M731.026 345.626C731.983 341.25 732.189 336.594 732.975 332.156C735.777 316.337 740.364 300.559 748.535 286.613C758.284 269.971 774.371 256.427 793.25 251.689C825.734 243.537 852.966 261.76 874.143 284.514C885.497 296.715 896.312 310.936 910.799 319.607L911.341 319.924L911.885 320.337C922.66 328.406 934.98 332.999 947.885 336.396C963.97 340.63 980.674 342.773 997.314 342.526C986.217 357.762 972.904 371.579 958.195 383.354C956.896 384.394 949.164 389.822 949.25 390.905L952.685 391.478C949.03 391.564 947.878 391.393 945.205 394.085L944.841 394.481C942.713 394.737 940.587 396.526 938.8 397.673L928.577 404.022L913.233 412.153C907.072 415.087 900.772 417.614 894.297 419.77C890.804 420.932 886.618 421.714 883.371 423.343L883.5 423.834C859.471 432.677 834.104 439.064 809 444.003C798.987 445.973 788.844 448.14 778.678 449.119L779.129 447.552C780.244 442.544 779.587 436.717 778.53 431.75C775.9 419.394 770.559 409.05 764.112 398.32L730.386 358.6L731.026 345.626Z"/>
	<path fill="#727273" d="M764.112 398.32L764.944 398.714C767.939 400.2 770.881 403.271 773.546 405.367C777.916 408.804 782.432 411.949 787.253 414.722C816.799 431.716 851.208 430.708 883.371 423.343L883.5 423.834C859.471 432.677 834.104 439.064 809 444.003C798.987 445.973 788.844 448.14 778.678 449.119L779.129 447.552C780.244 442.544 779.587 436.717 778.53 431.75C775.9 419.394 770.559 409.05 764.112 398.32Z"/>
	<defs>
		<linearGradient id="gradient_1" gradientUnits="userSpaceOnUse" x1="792.99445" y1="361.32272" x2="806.23407" y2="286.21753">
			<stop offset="0" stop-color="#463427"/>
			<stop offset="1" stop-color="#735B4A"/>
		</linearGradient>
	</defs>
	<path fill="url(#gradient_1)" d="M796.591 285.175C800.516 284.961 804.038 285.029 807.875 285.95C817.185 288.182 825.858 294.389 830.857 302.6C836.065 311.154 838.352 322.23 835.781 332.074L835.533 333C834.109 338.505 831.924 343.396 828.556 348C822.312 356.535 813.315 361.28 802.985 362.843C800.548 363.162 797.724 363.078 795.308 362.711L794.5 362.581C793.033 362.364 791.643 362.142 790.225 361.691C780.462 358.588 772.455 352.367 767.735 343.152C762.764 333.446 761.713 322.91 764.976 312.5C766.459 307.767 768.583 303.496 771.558 299.519C777.913 291.02 786.237 286.628 796.591 285.175Z"/>
	<path fill="#A3836D" d="M812.107 297.223C816.53 297.438 820.773 301.24 823.629 304.384C826.1 307.104 827.602 310.538 828.826 313.96C828.243 318.238 827.453 323.024 824.884 326.572C825.457 322.835 825.887 318.877 825.171 315.127C823.837 308.132 817.905 301.199 812.107 297.223Z"/>
	<path fill="#080E11" d="M824.884 326.572L822.957 331.5C819.765 338.646 813.18 345.435 805.72 348.105C799.236 350.425 792.362 349.928 786.153 346.94C779.447 343.714 774.459 337.59 772.221 330.535C769.772 322.81 770.729 314.589 774.582 307.526C778.037 301.191 783.781 296.541 790.727 294.558L791.5 294.345C796.751 292.847 802.34 293.179 807.424 295.175L812.107 297.223C817.905 301.199 823.837 308.132 825.171 315.127C825.887 318.877 825.457 322.835 824.884 326.572Z"/>
	<path fill="white" d="M807.554 301.587C809.261 301.452 811.154 301.195 812.84 301.552C815.84 302.187 817.803 303.554 819.349 306.196C821.4 309.7 822.519 314.133 821.233 318.118C820.046 321.792 817.466 323.614 814.136 325.197C812.547 325.391 810.919 325.627 809.335 325.281C806.15 324.584 803.484 322.414 801.79 319.671C799.874 316.569 799.572 312.193 800.626 308.75C801.758 305.052 804.239 303.246 807.554 301.587Z"/>
	<path fill="#D8D7D6" d="M803.339 486.621L812.036 483.875C824.542 505.872 830.36 529.034 829.746 554.299C829.636 558.815 829.777 564.883 828.46 569.161L828.201 569.813L817.219 553.155C815.295 550.079 813.779 546.342 811.443 543.602C812.771 570.42 809.327 596.7 797.681 621.148C796.124 624.417 794.304 629.345 792.025 632.098L791.694 632.393C790.862 623.467 789.773 613.089 787.083 604.557C785.188 611.523 783.227 618.457 780.273 625.065C772.688 642.032 761.631 656.345 748.441 669.324C739.619 678.004 729.943 686.039 719.156 692.177C714.705 694.71 710.079 697.18 705.28 698.987C688.608 692.013 675.202 679.102 662.627 666.48L648.024 650.372C637.018 637.035 627.837 622.065 621.895 605.796C621.068 607.049 620.814 609.466 620.472 610.946C619.275 616.124 618.233 621.335 617.544 626.607C617.2 629.244 617.293 632.062 616.733 634.637C612.382 626.156 607.873 617.736 604.462 608.815C596.72 588.565 594.683 567.041 597.461 545.624C586.573 553.691 579.349 564.705 576.055 577.728C574.983 569.875 573.778 561.844 573.582 553.92C573.289 542.005 574.954 529.223 578.114 517.74L578.144 517.309C581.951 506.028 585.277 493.789 592.457 484.075C603.198 487.438 613.905 490.816 624.891 493.317C635.634 495.762 646.603 497.443 657.5 499.038C674.745 501.561 691.83 503.42 709.28 502.551C713.44 502.344 718.102 502.362 722.117 501.242C723.551 501.811 725.374 501.335 726.882 501.156L737.775 499.815C751.527 497.74 765.407 495.982 779 493.011L803.339 486.621Z"/>
	<path fill="#B9B7B6" d="M592.457 484.075C603.198 487.438 613.905 490.816 624.891 493.317C635.634 495.762 646.603 497.443 657.5 499.038C674.745 501.561 691.83 503.42 709.28 502.551C713.44 502.344 718.102 502.362 722.117 501.242C723.551 501.811 725.374 501.335 726.882 501.156L737.775 499.815C751.527 497.74 765.407 495.982 779 493.011L803.339 486.621C798.808 506.635 789.614 525.019 777.64 541.616C769.742 552.562 760.365 562.322 751.535 572.5C743.04 582.291 735.168 592.58 727.578 603.081C725.064 606.56 722.295 609.915 719.936 613.495C688.549 576.517 646.172 547.429 602.263 527.266C595.057 523.957 585.933 519.032 578.114 517.74L578.144 517.309C581.951 506.028 585.277 493.789 592.457 484.075Z"/>
	<path fill="#424545" d="M442.012 402.355L432.149 392.815C430.718 391.443 428.904 390.055 427.87 388.389L457.477 389.359L500.531 412.708L521.97 420.197C537.584 425.752 554.634 426.932 571.045 427.038C590.051 426.401 608.035 420.792 624.5 411.419C628.532 409.124 632.161 406.108 636.206 403.933L636.6 403.726C629.634 417.82 624.383 431.526 624.864 447.539C628.562 464.239 638.298 476.897 652.75 486.07C669.397 496.635 688.78 501.571 708.5 500.377C712.581 500.13 716.595 499.198 720.663 498.84L720.019 499.371C718.063 500.847 712.301 500.712 709.631 501.427L711.632 501.306C713.654 501.107 715.18 501.562 717.25 501C718.683 500.611 720.654 501.077 722.117 501.242C718.102 502.362 713.44 502.344 709.28 502.551C691.83 503.42 674.745 501.561 657.5 499.038C646.603 497.443 635.634 495.762 624.891 493.317C613.905 490.816 603.198 487.438 592.457 484.075C585.277 493.789 581.951 506.028 578.144 517.309L577.758 517.176C572.913 515.468 568.182 513 563.5 510.863L535.426 497.387C505.74 482.344 476.595 466.605 449.263 447.52L415.016 421.21C395.383 442.099 374.469 463.04 357.578 486.25C345.695 502.579 335.182 519.943 327.139 538.497C310.534 576.806 303.748 620.096 305.121 661.691C306.18 693.749 314.206 726.066 325.146 756.092C335.098 783.409 348.373 812.015 370.25 831.895C376.991 838.021 386.766 843.42 395.802 845.079C393.733 846.881 391.233 848.48 388.803 849.751C363.478 863.004 335.783 838.427 321.163 819.845C317.99 815.812 315.199 811.416 312.486 807.066C311.324 805.204 309.317 801.204 307.589 799.927C307.221 799.654 306.714 799.655 306.277 799.52C304.343 795.894 303.045 791.912 301.444 788.128L292.851 766.883L285.028 740.657C278.907 740.199 272.409 738.271 266.424 736.794C245.981 731.751 224.164 725.332 205.355 715.741C208.263 703.993 210.491 692.274 214.074 680.666C218.185 667.348 224.077 654.122 230.313 641.666C238.793 624.731 248.058 608.958 260.019 594.213C268.685 584.684 277.586 576.142 287.837 568.321C285.578 565.749 283.782 562.452 281.845 559.612C278.102 554.122 274.142 548.673 269.906 543.552C267.123 540.186 263.968 536.945 260.722 534.022C258.565 532.081 256.187 530.474 254.465 528.113L280.613 520.292L311.627 516.029L312.011 516.187C312.456 516.041 312.966 516.023 313.347 515.75C314.171 515.159 315.331 512.602 315.98 511.583L324.523 498.571L333.775 486.099C356.074 457.887 385.633 432.322 416.903 414.497C424.99 409.888 433.711 406.528 442.012 402.355Z"/>
	<path fill="#727273" d="M571.045 427.038C590.051 426.401 608.035 420.792 624.5 411.419C628.532 409.124 632.161 406.108 636.206 403.933L636.6 403.726C629.634 417.82 624.383 431.526 624.864 447.539L561.763 427.784L570.535 427.125L571.045 427.038Z"/>
	<path fill="#080E11" d="M311.627 516.029L312.011 516.187L312.528 517.25L289.998 567.3L287.837 568.321C285.578 565.749 283.782 562.452 281.845 559.612C278.102 554.122 274.142 548.673 269.906 543.552C267.123 540.186 263.968 536.945 260.722 534.022C258.565 532.081 256.187 530.474 254.465 528.113L280.613 520.292L311.627 516.029Z"/>
	<path fill="#192226" d="M442.012 402.355L432.149 392.815C430.718 391.443 428.904 390.055 427.87 388.389L457.477 389.359L500.531 412.708C503.246 428.553 514.692 446.915 527.636 456.283C529.259 457.457 536.157 460.394 536.418 461.748C534.126 461.754 528.185 458.279 525.943 457.283C495.598 443.802 466.052 425.375 442.012 402.355Z"/>
	<path fill="#A4A19E" d="M289.998 567.3L289.861 568.23C289.244 572.006 287.376 575.942 286.307 579.669L280.346 604.443C271.65 649.407 273.979 696.341 285.028 740.657C278.907 740.199 272.409 738.271 266.424 736.794C245.981 731.751 224.164 725.332 205.355 715.741C208.263 703.993 210.491 692.274 214.074 680.666C218.185 667.348 224.077 654.122 230.313 641.666C238.793 624.731 248.058 608.958 260.019 594.213C268.685 584.684 277.586 576.142 287.837 568.321L289.998 567.3Z"/>
	<path fill="#5D5E5F" d="M395.802 845.079C386.766 843.42 376.991 838.021 370.25 831.895C348.373 812.015 335.098 783.409 325.146 756.092C314.206 726.066 306.18 693.749 305.121 661.691C303.748 620.096 310.534 576.806 327.139 538.497C335.182 519.943 345.695 502.579 357.578 486.25C374.469 463.04 395.383 442.099 415.016 421.21L449.263 447.52C476.595 466.605 505.74 482.344 535.426 497.387L563.5 510.863C568.182 513 572.913 515.468 577.758 517.176L578.144 517.309L578.114 517.74C574.954 529.223 573.289 542.005 573.582 553.92C573.778 561.844 574.983 569.875 576.055 577.728C579.349 564.705 586.573 553.691 597.461 545.624C594.683 567.041 596.72 588.565 604.462 608.815C607.873 617.736 612.382 626.156 616.733 634.637C617.293 632.062 617.2 629.244 617.544 626.607C618.233 621.335 619.275 616.124 620.472 610.946C620.814 609.466 621.068 607.049 621.895 605.796C627.837 622.065 637.018 637.035 648.024 650.372L662.627 666.48L661.838 667.903C663.1 670.105 661.992 674.558 661.801 677.078L659.926 702.856L658.441 769.337L658.973 793.974L633.868 800.878L632.981 801.5L624.777 853.864L624.25 852.887C620.8 854.266 617.579 855.938 614 857.009C602.791 860.362 587.438 860.621 576.369 856.426C569.607 854.877 561.603 851.234 556.16 846.925L555.506 846.402L545.277 837.25L544.223 837.47C543.075 833.81 541.068 830.418 539.276 827.038C538.331 824.867 534.76 815.846 532.903 815.045C531.289 814.349 528.33 814.418 526.468 814.163L515.084 812.1C497.556 808.328 480.108 804.228 463.086 798.53L447.377 793.175C445.207 792.468 443.309 791.36 441.094 792.015C439.76 790.41 437.099 790.003 435.189 789.31L425.975 785.462C421.948 799.375 417.635 812.473 410.563 825.191C408.746 828.459 406.911 831.787 404.858 834.911C403.379 837.163 401.292 839.52 400.23 841.963L395.802 845.079Z"/>
	<path fill="#424545" d="M661.838 667.903C663.1 670.105 661.992 674.558 661.801 677.078L659.926 702.856L658.441 769.337L658.973 793.974L633.868 800.878L633.338 799.997C633.553 795.995 634.811 791.86 635.642 787.93L639.746 767.759L653.28 704.105L661.838 667.903Z"/>
	<path fill="#424545" d="M425.975 785.462C438.012 735.151 434.841 683.086 420.188 633.763C422.223 636.271 423.545 639.367 425.114 642.192L434.426 658.571C452.084 688.066 471.976 716.309 500.974 735.768C492.754 703.821 488.375 671.223 489.265 638.216C489.401 633.153 488.922 627.372 489.952 622.429C492.03 636.438 495.893 650.607 499.238 664.375C511.309 714.074 528.124 763.489 550.568 809.502L576.369 856.426C569.607 854.877 561.603 851.234 556.16 846.925L555.506 846.402L545.277 837.25L544.223 837.47C543.075 833.81 541.068 830.418 539.276 827.038C538.331 824.867 534.76 815.846 532.903 815.045C531.289 814.349 528.33 814.418 526.468 814.163L515.084 812.1C497.556 808.328 480.108 804.228 463.086 798.53L447.377 793.175C445.207 792.468 443.309 791.36 441.094 792.015C439.76 790.41 437.099 790.003 435.189 789.31L425.975 785.462Z"/>
	<defs>
		<linearGradient id="gradient_2" gradientUnits="userSpaceOnUse" x1="390.90045" y1="217.26663" x2="989.8111" y2="177.63557">
			<stop offset="0" stop-color="#505151"/>
			<stop offset="1" stop-color="#747677"/>
		</linearGradient>
	</defs>
	<path fill="url(#gradient_2)" d="M849.27 72.2017C851.585 70.1985 854.751 68.8657 857.469 67.4622C864.255 63.9582 871.141 60.865 878.239 58.0397C889.239 53.6614 901.299 50.404 912.978 48.5978C918.858 47.6884 924.249 46.6102 929.915 49.1989C937.393 52.6153 940.12 61.1174 942.528 68.3271C946.618 80.5754 948.962 93.2081 950.514 106C955.679 148.573 948.526 191.711 929.119 230.004L920.57 244.366C939.508 275.834 961.339 307.699 999.376 316.821L1000.06 316.98C988.438 325.082 974.98 330.745 960.449 328.08L958.493 327.681C932.145 322.097 916.147 301.408 902.039 280.059C880.244 247.077 858.487 207.823 816.308 199.11C799.104 195.556 782.887 198.931 768.257 208.661C745.004 224.127 734.936 251.357 729.767 277.623C724.45 304.645 727.209 331.178 729.743 358.269L725.77 357.359C711.475 354.935 697.952 354.837 683.603 356.764C681.277 357.218 678.55 357.436 676.569 358.814L636.6 403.726L636.206 403.933C632.161 406.108 628.532 409.124 624.5 411.419C608.035 420.792 590.051 426.401 571.045 427.038C554.634 426.932 537.584 425.752 521.97 420.197L522.25 419.528L515.196 412.526C495.938 392.298 491.061 361.918 496.004 335.25C496.739 331.286 497.737 327.248 498.909 323.391C499.502 321.44 501.013 318.804 500.977 316.823L500.945 316.16C494.772 320.57 488.323 325.366 481.032 327.752C480.538 327.644 479.176 327.175 478.75 327.255C476.838 327.616 473.584 329.072 471.783 329.905C470.493 330.501 469.091 330.775 467.75 331.255C462.397 333.173 456.545 334.339 451.002 335.618C446.651 336.623 441.67 338.176 437.366 336.488C440.939 335.279 443.527 334.187 446.372 331.674C444.579 331.696 441.667 332.099 440.037 331.428L439.627 331.197C423.417 330.383 410.365 325.186 396.624 316.859C400.75 315.379 405.047 314.54 409.178 313.012C425.048 307.143 439.328 297.603 451.041 285.41C461.882 274.126 469.877 259.929 477.292 246.249C477.949 245.037 480 242.145 480.171 240.899C480.188 240.774 479.383 239.234 479.318 239.095L475.144 230.091C462.564 201.443 454.944 168.348 454.318 137.015C453.918 117.028 455.746 97.4158 461.704 78.2588C464.564 69.0646 468.069 60.2571 474.8 53.236C477.487 50.9574 480.06 49.2806 483.5 48.4161L484.047 48.2697C489.592 46.9144 496.943 49.1302 502.268 50.6233C522.311 56.2437 541.32 65.0193 558.878 76.1772C569.331 82.8201 579.258 90.2297 588.319 98.682C595.826 105.684 602.586 113.34 609.547 120.867C658.929 102.483 712.731 97.992 764.156 110.392C773.857 112.731 783.367 116.188 792.832 119.325C803.572 105.345 818.341 93.1114 832.588 82.8961C837.9 79.0875 843.37 75.0526 849.27 72.2017Z"/>
	<path fill="#A4A19E" d="M488.241 76.826C489.405 76.1305 490.835 75.0358 492.07 74.5391C493.818 73.8362 499.131 75.3926 501.02 75.8696C531.069 83.4568 562.996 102.848 579.128 129.897L581.324 133.778L567.817 141.75C565.987 142.9 563.07 145.453 561.165 145.912L560.531 146.481C556.814 149.778 552.541 152.586 548.725 155.824C537.759 165.129 527.897 174.92 518.75 186.015C515.706 189.707 512.467 193.397 509.847 197.405C508.358 199.004 507.136 200.698 505.879 202.476L494.999 220.625C492.399 217.192 490.439 212.864 488.558 208.977C480.789 192.92 476.124 175.787 474.384 158.037C472.363 137.423 474.45 115.129 480.087 95.2188C481.93 88.7096 483.895 82.1333 488.241 76.826Z"/>
	<path fill="#080E11" d="M505.879 202.476C496.054 182.227 492.472 159.433 496.708 137.225C498.489 127.889 501.512 116.129 509.769 110.548C514.268 110.427 518.163 110.676 522.5 111.99C539.356 117.096 553.114 130.627 561.165 145.912L560.531 146.481C556.814 149.778 552.541 152.586 548.725 155.824C537.759 165.129 527.897 174.92 518.75 186.015C515.706 189.707 512.467 193.397 509.847 197.405C508.358 199.004 507.136 200.698 505.879 202.476Z"/>
	<path fill="#A4A19E" d="M843.989 146.442L827.436 135.959C826.039 135.081 824.016 134.412 822.947 133.206C828.86 125.98 834.809 118.824 841.58 112.368C857.289 97.3884 876.999 84.8606 897.29 77.1471C902.216 75.2742 907.991 72.6559 913.25 72.0451C915.313 71.8056 917.604 71.8821 919.211 73.3385C921.806 75.6918 923.11 80.3047 924.234 83.5499C929.73 99.4139 932.544 115.987 932.576 132.781C932.627 159.971 925.88 188.043 914.698 212.767C913.312 215.831 911.612 220.946 909.363 223.253C905.238 216.835 901.837 209.115 896.57 203.556C882.411 181.128 864.618 162.921 843.989 146.442Z"/>
	<path fill="#080E11" d="M843.989 146.442C853.143 131.759 865.161 116.864 882.865 112.687C887.923 111.494 894.895 111.231 899.398 114.18C906.137 118.595 908.652 131.885 909.991 139.422C913.917 161.529 908.593 184.758 896.57 203.556C882.411 181.128 864.618 162.921 843.989 146.442Z"/>
	<path fill="#D8D7D6" d="M510.313 268.2L510.781 267.673C512.704 265.455 514.238 262.49 515.827 260.005L524.791 246.792C542.208 223.221 568.524 201.213 598.82 198.641C615.437 197.23 632.81 202.901 645.439 213.801C669.036 234.168 678.352 266.521 680.404 296.688C681.361 310.765 681.13 324.611 679.556 338.644C678.951 344.036 678.45 349.549 677.186 354.831L676.534 351.392C676.633 345.586 675.672 339.482 674.894 333.734C672.99 328.974 672.675 322.545 671.379 317.451C667.014 300.299 658.93 283.223 646.833 270.165C635.588 258.026 619.554 250.105 602.945 249.543C575.984 248.633 555.192 261.133 536.965 280.198C531.252 286.174 526.248 292.944 520.187 298.565L519.648 299.06L500.945 316.16C494.772 320.57 488.323 325.366 481.032 327.752C480.538 327.644 479.176 327.175 478.75 327.255C476.838 327.616 473.584 329.072 471.783 329.905C470.493 330.501 469.091 330.775 467.75 331.255C462.397 333.173 456.545 334.339 451.002 335.618C446.651 336.623 441.67 338.176 437.366 336.488C440.939 335.279 443.527 334.187 446.372 331.674C444.579 331.696 441.667 332.099 440.037 331.428L439.627 331.197C443.241 331.283 447.231 331.388 450.75 330.486C476.611 323.861 497.51 289.611 510.313 268.2Z"/>
	<path fill="#B9B7B6" d="M519.648 299.06C519.74 298.089 519.759 297.51 520.25 296.646C521.827 293.871 525.277 291.215 527.406 288.75C538.229 276.216 548.186 262.509 561.001 251.883C570.977 243.611 582.826 238.673 595.59 236.801C610.579 234.601 627.231 241.294 638.996 250.148C657.917 264.387 666.206 282.699 671.717 304.971C673.371 311.655 675.092 318.126 676.023 324.974C676.44 328.039 676.27 330.494 675.755 333.5L675.625 334.752L674.894 333.734C672.99 328.974 672.675 322.545 671.379 317.451C667.014 300.299 658.93 283.223 646.833 270.165C635.588 258.026 619.554 250.105 602.945 249.543C575.984 248.633 555.192 261.133 536.965 280.198C531.252 286.174 526.248 292.944 520.187 298.565L519.648 299.06Z"/>
	<path fill="#192226" d="M519.648 299.06L520.187 298.565C526.248 292.944 531.252 286.174 536.965 280.198C555.192 261.133 575.984 248.633 602.945 249.543C619.554 250.105 635.588 258.026 646.833 270.165C658.93 283.223 667.014 300.299 671.379 317.451C672.675 322.545 672.99 328.974 674.894 333.734C675.672 339.482 676.633 345.586 676.534 351.392L676.569 358.814L636.6 403.726L636.206 403.933C632.161 406.108 628.532 409.124 624.5 411.419C608.035 420.792 590.051 426.401 571.045 427.038C554.634 426.932 537.584 425.752 521.97 420.197L522.25 419.528L515.196 412.526C495.938 392.298 491.061 361.918 496.004 335.25C496.739 331.286 497.737 327.248 498.909 323.391C499.502 321.44 501.013 318.804 500.977 316.823L500.945 316.16L519.648 299.06Z"/>
	<defs>
		<linearGradient id="gradient_3" gradientUnits="userSpaceOnUse" x1="596.98212" y1="362.90509" x2="612.44037" y2="284.48825">
			<stop offset="0" stop-color="#433225"/>
			<stop offset="1" stop-color="#6D5747"/>
		</linearGradient>
	</defs>
	<path fill="url(#gradient_3)" d="M601.331 283.626C610.469 282.728 618.197 284.51 625.92 289.524C634.343 294.994 640.47 304.695 642.485 314.451L642.686 315.45L643.088 317.402C645.04 327.911 641.973 340.098 635.963 348.807L635.478 349.5L634.58 350.79C628.202 359.347 619.466 363.476 609.115 364.917C599.91 365.271 592.001 363.477 584.25 358.255C575.166 352.136 569.559 342.588 567.324 332.011C566.396 327.619 566.071 322.661 566.784 318.211C567.785 311.96 569.438 306.814 573.022 301.535C579.869 291.454 589.54 285.938 601.331 283.626Z"/>
	<path fill="#A3836D" d="M616.627 295.078C618.693 294.087 621.376 294.553 623.498 295.257C627.902 296.717 630.54 300.625 632.293 304.656C633.463 307.344 633.502 309.033 633.287 311.959L632.259 313.57C629.264 305.345 624.482 299.145 616.627 295.078Z"/>
	<path fill="#080E11" d="M632.259 313.57C633.821 318.997 633.807 323.777 632.384 329.25C630.295 337.285 624.97 344.783 617.657 348.836C611.625 352.179 603.777 353.102 597.141 351.099C589.902 348.914 583.991 343.452 580.589 336.788C576.964 329.687 576.231 320.216 578.714 312.609C581.138 305.185 586.235 299.054 593.252 295.565C601.08 291.673 608.575 292.342 616.627 295.078C624.482 299.145 629.264 305.345 632.259 313.57Z"/>
	<path fill="white" d="M616.696 301.617C618.483 301.585 620.611 301.878 622.307 302.439C625.217 303.402 627.308 306.472 628.422 309.182C629.792 312.515 629.009 317.1 627.408 320.25C625.675 323.66 623.174 325.382 619.674 326.658C617.61 326.677 615.751 326.696 613.878 325.722C610.797 324.121 608.492 321.25 607.464 317.937C606.427 314.597 606.729 310.196 608.509 307.159C610.454 303.842 613.109 302.542 616.696 301.617Z"/>
</svg>
